<svg width="195" height="62" viewBox="0 0 195 62" fill="none" xmlns="http://www.w3.org/2000/svg">
<path d="M21.3719 19.5071C21.4302 19.7419 21.3719 19.9474 21.1969 20.1236C21.0511 20.2997 20.9491 20.5346 20.8908 20.8281C20.8325 20.8868 20.7596 20.9455 20.6721 21.0043C20.5846 21.0336 20.5117 21.107 20.4534 21.2244C20.3368 21.4593 20.2056 21.5914 20.0598 21.6207C19.9723 21.8556 19.8557 22.0464 19.7099 22.1932C19.5933 22.34 19.4767 22.5161 19.3601 22.7216C19.3601 22.8684 19.3017 22.9564 19.1851 22.9858C19.0976 22.9858 19.0248 23.0152 18.9664 23.0739C18.879 23.6316 18.6166 24.0573 18.1792 24.3509C17.8585 24.3215 17.5378 24.2481 17.217 24.1307C17.1296 24.0426 17.0858 23.9252 17.0858 23.7784C17.115 23.6316 17.1004 23.4995 17.0421 23.3821C16.9838 23.2647 16.9255 23.1619 16.8672 23.0739C16.8088 22.9858 16.7505 22.883 16.6922 22.7656C16.6339 22.6776 16.561 22.5895 16.4735 22.5014C16.3861 22.4134 16.3132 22.34 16.2549 22.2812C16.1674 22.1051 16.0799 22.0024 15.9925 21.973C15.905 21.9143 15.8467 21.8703 15.8175 21.8409C15.7592 21.7528 15.7009 21.6648 15.6426 21.5767C15.5843 21.4886 15.5259 21.4006 15.4676 21.3125C15.4093 21.2538 15.3364 21.1804 15.249 21.0923C15.1906 21.0043 15.1323 20.9309 15.074 20.8722C14.9282 20.7841 14.8262 20.7401 14.7679 20.7401C14.7096 20.7107 14.6658 20.6667 14.6367 20.608C14.2285 20.4318 13.864 20.3437 13.5433 20.3437C13.2226 20.3437 12.9456 20.3291 12.7123 20.2997C12.6249 20.2997 12.5374 20.285 12.4499 20.2557C12.3624 20.2263 12.2604 20.2116 12.1438 20.2116C12.0855 20.2116 12.0126 20.2263 11.9251 20.2557C11.8376 20.285 11.7502 20.3144 11.6627 20.3437C11.5752 20.3731 11.4877 20.3878 11.4003 20.3878C11.3128 20.3584 11.2399 20.3584 11.1816 20.3878C11.065 20.4465 10.9629 20.5346 10.8755 20.652C10.788 20.7401 10.6714 20.7841 10.5256 20.7841C10.3798 21.0777 10.2194 21.2978 10.0445 21.4446C9.8987 21.562 9.79666 21.6941 9.73834 21.8409C9.70919 21.929 9.66545 22.1198 9.60714 22.4134C9.54882 22.6482 9.47593 22.9271 9.38846 23.25C9.30099 23.5729 9.27184 23.8665 9.30099 24.1307C9.30099 24.483 9.35931 24.7912 9.47593 25.0554C9.59256 25.2902 9.68003 25.5544 9.73834 25.848C9.85497 25.9067 9.92786 25.9801 9.95702 26.0682C10.0153 26.1562 10.0736 26.259 10.132 26.3764C10.2194 26.4645 10.2923 26.5526 10.3506 26.6406C10.4381 26.7287 10.5547 26.7874 10.7005 26.8168C10.7005 26.9635 10.7297 27.0663 10.788 27.125C10.8463 27.1837 10.8755 27.2718 10.8755 27.3892C11.167 27.5653 11.4294 27.7855 11.6627 28.0497C11.7793 28.2552 11.8814 28.3873 11.9688 28.446C12.0855 28.4754 12.1146 28.5488 12.0563 28.6662C12.2604 28.7249 12.4062 28.7983 12.4937 28.8864C12.5811 28.9744 12.654 29.0478 12.7123 29.1065C13.033 29.2827 13.2663 29.4735 13.4121 29.679C13.5579 29.8551 13.7474 30.0019 13.9806 30.1193C14.0098 30.2661 14.0681 30.3835 14.1556 30.4716C14.2431 30.5597 14.3014 30.6771 14.3305 30.8239C14.4763 30.7945 14.5784 30.8239 14.6367 30.9119C14.695 31 14.8116 31.0294 14.9865 31C15.0449 31.1468 15.1178 31.2495 15.2052 31.3082C15.3219 31.3669 15.4385 31.4257 15.5551 31.4844C15.8758 31.7486 16.1382 31.9541 16.3423 32.1009C16.5464 32.2476 16.736 32.4091 16.9109 32.5852C16.9692 32.6733 17.0275 32.7467 17.0858 32.8054C17.1441 32.8348 17.2025 32.8788 17.2608 32.9375C17.669 33.3191 17.9897 33.6567 18.2229 33.9503C18.4562 34.2145 18.6894 34.4493 18.9227 34.6548C19.0393 35.0952 19.2434 35.5062 19.535 35.8878C19.5642 36.1813 19.6954 36.4455 19.9286 36.6804C19.8995 36.974 19.9286 37.2235 20.0161 37.429C20.1035 37.6051 20.191 37.7812 20.2785 37.9574C20.3368 38.1042 20.3805 38.2803 20.4097 38.4858C20.468 38.6913 20.4826 38.8674 20.4534 39.0142C20.4826 39.161 20.4826 39.2784 20.4534 39.3665C20.4243 39.4252 20.4243 39.4986 20.4534 39.5866C20.4534 39.7334 20.468 39.8802 20.4972 40.027C20.5555 40.1738 20.5992 40.3352 20.6284 40.5114C20.5701 40.8049 20.5555 41.0104 20.5846 41.1278C20.6138 41.2159 20.6284 41.304 20.6284 41.392C20.5992 41.5682 20.5555 41.7443 20.4972 41.9205C20.4389 42.0966 20.4389 42.2727 20.4972 42.4489C20.3222 42.625 20.2785 42.8158 20.366 43.0213C20.3368 43.1681 20.2931 43.2708 20.2348 43.3295C20.1764 43.3883 20.1181 43.4616 20.0598 43.5497C20.089 43.8139 20.0598 44.0488 19.9723 44.2543C19.914 44.401 19.8266 44.5478 19.7099 44.6946C19.6225 44.8414 19.5058 44.9294 19.3601 44.9588C19.3892 45.1643 19.3601 45.2964 19.2726 45.3551C19.2143 45.3845 19.1705 45.4285 19.1414 45.4872C19.0539 45.7221 18.9081 45.9276 18.704 46.1037C18.5291 46.2505 18.3833 46.3973 18.2667 46.544C18.1501 46.6908 18.0188 46.8376 17.8731 46.9844C17.7273 47.1312 17.5815 47.2779 17.4357 47.4247C17.3482 47.5128 17.2462 47.6155 17.1296 47.733C17.0421 47.8504 16.9692 47.9384 16.9109 47.9972C16.8526 48.0559 16.7505 48.0999 16.6047 48.1293C16.4881 48.1586 16.3569 48.2026 16.2111 48.2614C15.8904 48.4081 15.628 48.5109 15.4239 48.5696C15.249 48.6283 15.0449 48.6723 14.8116 48.7017C14.52 48.7311 14.3305 48.7604 14.2431 48.7898C14.1847 48.8485 14.1264 48.8778 14.0681 48.8778C13.9223 48.8778 13.7911 48.8485 13.6745 48.7898C13.587 48.7604 13.485 48.7311 13.3684 48.7017C13.1351 48.8191 12.9018 48.8632 12.6686 48.8338C12.4353 48.8044 12.1583 48.7604 11.8376 48.7017C11.6918 48.6723 11.4877 48.643 11.2253 48.6136C10.9921 48.6136 10.8026 48.5696 10.6568 48.4815C10.4818 48.5402 10.2923 48.6136 10.0882 48.7017C9.79666 48.6136 9.50509 48.5549 9.21352 48.5256C8.92196 48.4962 8.61581 48.4375 8.29509 48.3494C8.17846 48.3201 8.06183 48.276 7.94521 48.2173C7.82858 48.1586 7.71195 48.0999 7.59533 48.0412C7.44954 47.9825 7.30376 47.9531 7.15797 47.9531C7.01219 47.9825 6.88099 47.9678 6.76436 47.9091C6.67689 47.8504 6.58942 47.7917 6.50195 47.733C6.41448 47.6449 6.32701 47.5715 6.23954 47.5128C6.03544 47.366 5.8605 47.2633 5.71472 47.2045C5.59809 47.1458 5.51062 47.0431 5.45231 46.8963C5.16074 46.955 4.95664 46.8963 4.84002 46.7202C4.72339 46.544 4.54845 46.456 4.3152 46.456C4.25688 46.3973 4.22773 46.3239 4.22773 46.2358C4.25688 46.1184 4.2423 46.0303 4.18399 45.9716C4.03821 45.9129 3.93616 45.9129 3.87785 45.9716C3.84869 46.0303 3.7758 46.045 3.65917 46.0156C3.60086 45.8982 3.54254 45.8101 3.48423 45.7514C3.45507 45.6927 3.41134 45.6046 3.35303 45.4872C3.29471 45.4285 3.19266 45.3698 3.04688 45.3111C2.9011 45.2524 2.76989 45.1496 2.65326 45.0028C2.56579 44.8561 2.4929 44.768 2.43459 44.7386C2.37628 44.6799 2.33254 44.6359 2.30338 44.6065C2.12844 44.3423 1.98266 44.0928 1.86603 43.858C1.77856 43.5937 1.66194 43.3883 1.51615 43.2415V42.669C1.34121 42.3461 1.13712 42.0379 0.903863 41.7443C0.699766 41.4508 0.597717 41.0544 0.597717 40.5554C0.685187 40.4967 0.743501 40.438 0.772657 40.3793C0.830971 40.2912 0.889284 40.2178 0.947598 40.1591C1.03507 40.1004 1.12254 40.071 1.21001 40.071C1.32663 40.0417 1.42868 39.9976 1.51615 39.9389C1.66194 39.8508 1.8223 39.7775 1.99724 39.7187C2.17218 39.66 2.28881 39.5279 2.34712 39.3224C2.4929 39.3224 2.62411 39.2931 2.74073 39.2344C2.85736 39.1757 2.98857 39.1169 3.13435 39.0582C3.33845 38.9115 3.46965 38.8381 3.52797 38.8381C3.58628 38.8087 3.64459 38.7794 3.70291 38.75C3.79038 38.6619 3.86327 38.5739 3.92158 38.4858C4.00905 38.3977 4.09652 38.3243 4.18399 38.2656C4.35893 38.3243 4.46098 38.339 4.49014 38.3097C4.54845 38.2509 4.69423 38.2803 4.92749 38.3977C5.24821 38.6032 5.48146 38.9995 5.62725 39.5866C5.68556 39.8802 5.75845 40.1004 5.84592 40.2472C5.96255 40.3939 6.0646 40.5407 6.15207 40.6875C6.2687 40.8636 6.45821 41.0838 6.72062 41.348C6.98303 41.6122 7.23087 41.8177 7.46412 41.9645C7.6099 42.0526 7.77027 42.17 7.94521 42.3168C8.12015 42.4635 8.25135 42.5663 8.33882 42.625C8.42629 42.6544 8.52834 42.669 8.64497 42.669C8.79075 42.669 8.93653 42.6837 9.08232 42.7131C9.19894 42.7424 9.30099 42.7718 9.38846 42.8011C9.47593 42.8305 9.5634 42.8452 9.65087 42.8452C10.1465 42.9039 10.5547 42.9332 10.8755 42.9332C11.1962 42.9039 11.5606 42.8305 11.9688 42.7131C12.2021 42.6544 12.4208 42.5956 12.6249 42.5369C12.8581 42.4489 13.0622 42.3461 13.2371 42.2287C13.4704 42.0526 13.6453 41.8911 13.762 41.7443C13.9078 41.5975 14.0535 41.3774 14.1993 41.0838C14.2576 40.8783 14.3014 40.7609 14.3305 40.7315C14.3888 40.6728 14.418 40.6141 14.418 40.5554C14.4471 40.4673 14.4617 40.3646 14.4617 40.2472C14.4617 40.1297 14.4763 39.9976 14.5055 39.8508C14.5346 39.7334 14.5638 39.616 14.5929 39.4986C14.6221 39.3518 14.6512 39.2491 14.6804 39.1903C14.6804 38.9555 14.6512 38.75 14.5929 38.5739C14.5346 38.3684 14.4909 38.1482 14.4617 37.9133C14.3451 37.7666 14.2139 37.6198 14.0681 37.473C13.9223 37.3262 13.8203 37.1354 13.762 36.9006C13.5287 36.6951 13.2809 36.4896 13.0185 36.2841C12.7852 36.0786 12.6394 35.7704 12.5811 35.3594C12.4937 35.3007 12.3916 35.2713 12.275 35.2713C12.1583 35.2419 12.0563 35.1979 11.9688 35.1392C11.9688 34.8456 11.8814 34.6108 11.7064 34.4347C11.5606 34.2585 11.4003 34.0824 11.2253 33.9062C11.167 33.7888 11.1087 33.7154 11.0504 33.6861C11.0212 33.6274 10.9629 33.5687 10.8755 33.5099C10.7588 33.3044 10.6422 33.187 10.5256 33.1577C10.3506 33.0109 10.1611 32.8641 9.95702 32.7173C9.60714 32.4531 9.25726 32.1302 8.90738 31.7486C8.58665 31.3376 8.22219 30.9853 7.814 30.6918C7.78484 30.4569 7.71195 30.2661 7.59533 30.1193C7.4787 29.9725 7.34749 29.8404 7.20171 29.723C7.05593 29.0772 6.77894 28.5488 6.37074 28.1378C6.3999 27.991 6.38532 27.8736 6.32701 27.7855C6.2687 27.6974 6.21038 27.58 6.15207 27.4332C6.0646 27.2277 5.99171 27.0956 5.93339 27.0369C5.87508 26.9489 5.83134 26.8901 5.80219 26.8608C5.74387 26.6259 5.70014 26.3911 5.67098 26.1562C5.67098 25.892 5.61267 25.6425 5.49604 25.4077C5.5252 25.2902 5.55436 25.1875 5.58351 25.0994C5.64183 25.0114 5.67098 24.8939 5.67098 24.7472C5.58351 24.4242 5.53978 24.2041 5.53978 24.0866C5.53978 23.9692 5.49604 23.9105 5.40857 23.9105C5.46689 23.705 5.45231 23.5142 5.36484 23.3381C5.27737 23.1326 5.21905 22.9271 5.1899 22.7216C5.1899 22.5161 5.20448 22.3106 5.23363 22.1051C5.26279 21.8703 5.29195 21.6794 5.3211 21.5327C5.29195 21.2978 5.3211 21.063 5.40857 20.8281C5.49604 20.5933 5.56893 20.4171 5.62725 20.2997C5.71472 20.0062 5.83134 19.7419 5.97713 19.5071C6.12291 19.2723 6.25412 19.0374 6.37074 18.8026C6.51653 18.5677 6.604 18.3475 6.63315 18.142C6.83725 18.0246 6.96846 17.8925 7.02677 17.7457C7.08508 17.599 7.18713 17.4522 7.33291 17.3054C7.6828 17.0118 7.90147 16.8357 7.98894 16.777C8.16388 16.6302 8.33882 16.4981 8.51376 16.3807C8.71786 16.2633 8.8928 16.1605 9.03858 16.0724C9.33015 15.9844 9.50509 15.911 9.5634 15.8523C9.62172 15.7936 9.68003 15.7642 9.73834 15.7642C9.9716 15.7348 10.1174 15.7055 10.1757 15.6761C10.234 15.6468 10.2777 15.6321 10.3069 15.6321C10.511 15.5734 10.7151 15.544 10.9192 15.544C11.1233 15.544 11.342 15.5294 11.5752 15.5C11.721 15.5 11.8814 15.5 12.0563 15.5C12.2312 15.4706 12.4353 15.4853 12.6686 15.544C12.7852 15.5734 12.8873 15.6174 12.9747 15.6761C13.0622 15.7055 13.1643 15.7348 13.2809 15.7642C13.7182 15.8229 14.1847 15.8229 14.6804 15.7642C14.7679 15.8229 14.8553 15.8963 14.9428 15.9844C15.0594 16.0431 15.1615 16.1018 15.249 16.1605C15.6863 16.2192 16.0216 16.366 16.2549 16.6009C16.7214 16.6889 17.0713 16.821 17.3045 16.9972C17.5378 17.1439 17.7564 17.2907 17.9605 17.4375C18.048 17.4669 18.1209 17.4962 18.1792 17.5256C18.2375 17.5549 18.325 17.5549 18.4416 17.5256C18.5291 17.7017 18.6311 17.8485 18.7478 17.9659C18.8935 18.054 19.0248 18.1567 19.1414 18.2741C19.4913 18.4209 19.7682 18.5237 19.9723 18.5824C20.2056 18.6411 20.4097 18.7292 20.5846 18.8466C20.6721 18.9053 20.7596 18.9493 20.847 18.9787C20.9345 18.9787 21.0074 19.008 21.0657 19.0668C21.2115 19.1548 21.3136 19.3016 21.3719 19.5071Z" fill="#E4E4E4"/>
<path fill-rule="evenodd" clip-rule="evenodd" d="M55.7992 44.9138C55.8176 44.8841 55.8327 44.8512 55.8447 44.8151C55.7609 44.4212 55.6212 44.0414 55.4256 43.6757C55.2579 43.31 55.1042 42.9443 54.9645 42.5785C54.741 41.9596 54.5454 41.3688 54.3778 40.8062C54.266 40.5811 54.1822 40.3982 54.1263 40.2576C54.0704 40.1732 54.0425 40.0888 54.0425 40.0044C54.0704 39.8918 54.0564 39.7652 54.0005 39.6246C53.9447 39.4839 53.8748 39.3432 53.791 39.2026L53.6233 38.7806C53.5674 38.5555 53.4696 38.3305 53.3299 38.1054C53.1902 37.8803 53.0785 37.6553 52.9946 37.4302L52.827 37.0082C52.7711 36.8394 52.7152 36.7128 52.6593 36.6284C52.6034 36.4878 52.5336 36.3471 52.4498 36.2064C52.3939 36.0658 52.2961 35.9392 52.1564 35.8266C52.1005 35.6016 52.0306 35.4046 51.9468 35.2358C51.863 35.0389 51.7931 34.842 51.7372 34.645C51.6814 34.5607 51.6395 34.4622 51.6115 34.3497C51.6115 34.209 51.5836 34.0824 51.5277 33.9699C51.4159 33.6885 51.2622 33.4213 51.0666 33.1681C51.0108 33.0555 50.9549 32.9571 50.899 32.8727C50.8431 32.7601 50.7453 32.5913 50.6056 32.3663C50.5497 32.2256 50.4799 32.0709 50.396 31.9021C50.3122 31.7052 50.1865 31.4942 50.0188 31.2691C50.0188 31.0722 49.9769 30.9034 49.8931 30.7627C49.8093 30.622 49.7394 30.4814 49.6835 30.3407C49.6276 30.1157 49.5578 29.8906 49.474 29.6655C49.4181 29.4123 49.3343 29.1591 49.2225 28.9059C49.1945 28.8497 49.1526 28.7934 49.0967 28.7371C49.0409 28.6809 48.985 28.5824 48.9291 28.4417C48.8453 28.3292 48.7614 28.2448 48.6776 28.1886C48.6217 28.1042 48.5519 28.0198 48.4681 27.9354C48.3563 27.6259 48.2305 27.3164 48.0908 27.007C47.9791 26.6694 47.8533 26.374 47.7136 26.1208C47.6857 25.8957 47.6298 25.6566 47.546 25.4034C47.4901 25.1502 47.4342 24.9392 47.3783 24.7704C47.3224 24.5453 47.2526 24.3765 47.1688 24.264C47.1129 24.1233 47.043 23.9686 46.9592 23.7998C46.8754 23.7154 46.8055 23.617 46.7496 23.5044C46.7217 23.3919 46.6798 23.2934 46.6239 23.209L46.4562 22.9558C46.4283 22.8714 46.3864 22.8011 46.3305 22.7448C46.2746 22.6323 46.2187 22.5338 46.1629 22.4494C46.1349 22.365 46.093 22.2806 46.0371 22.1962C45.8974 21.8868 45.7577 21.5914 45.618 21.3101C45.5062 21.0006 45.3945 20.7193 45.2827 20.4661L45.115 20.2129C45.0871 20.1285 45.0452 20.0159 44.9893 19.8753C44.9334 19.7627 44.8915 19.6502 44.8636 19.5377C44.8636 19.4252 44.8356 19.2986 44.7797 19.1579C44.6959 18.8766 44.5981 18.5952 44.4863 18.3139C44.4025 18.0044 44.3187 17.7372 44.2349 17.5121C44.151 17.3152 44.0672 17.1323 43.9834 16.9635C43.9275 16.7947 43.8577 16.64 43.7738 16.4993L43.6062 16.0773C43.5503 15.9367 43.4944 15.8101 43.4385 15.6975C43.3826 15.5006 43.2848 15.3037 43.1451 15.1068C43.0334 14.9098 42.9216 14.7551 42.8098 14.6426C42.7539 14.53 42.6841 14.4175 42.6003 14.305C42.5444 14.1643 42.4466 14.0096 42.3069 13.8408C42.1951 13.7282 42.1113 13.6016 42.0554 13.461C41.9995 13.3203 41.8319 13.2219 41.5525 13.1656H41.301C41.2451 13.1375 41.1333 13.1515 40.9657 13.2078C40.8818 13.5172 40.7701 13.7986 40.6304 14.0518C40.4907 14.305 40.2811 14.5019 40.0017 14.6426C39.9458 14.8114 39.8759 14.9802 39.7921 15.149C39.7362 15.2896 39.6664 15.4444 39.5826 15.6131C39.4987 15.8382 39.4149 16.0914 39.3311 16.3727C39.2472 16.6259 39.1634 16.851 39.0796 17.0479C38.9958 17.273 38.9119 17.5121 38.8281 17.7653C38.7743 17.9821 38.6946 18.2641 38.5889 18.6113L38.5166 18.7586C38.473 18.8277 38.4232 18.8904 38.3671 18.9469C38.2833 19.0313 38.2134 19.1438 38.1575 19.2845C38.1122 19.3985 38.0853 19.5218 38.0767 19.6543L31.5116 33.0229C31.5056 33.0291 31.4995 33.0353 31.4934 33.0415C31.4096 33.154 31.3397 33.2806 31.2838 33.4213C31.2 33.5619 31.1301 33.7167 31.0743 33.8855C31.0184 34.0261 30.9206 34.1387 30.7809 34.2231C30.7809 34.42 30.711 34.5747 30.5713 34.6872C30.4595 34.7998 30.3757 34.9264 30.3198 35.067C30.1801 35.2921 30.0544 35.5453 29.9426 35.8266C29.8588 36.108 29.747 36.3612 29.6073 36.5862L29.5235 36.755C29.5235 36.7831 29.5095 36.8816 29.4816 37.0504L29.3978 37.2192C29.3698 37.2473 29.3279 37.3599 29.272 37.5568C29.2615 37.5886 29.2504 37.6199 29.2389 37.6508L29.0468 38.0419C28.9666 38.1491 28.874 38.2688 28.7691 38.4008C28.6573 38.6259 28.5595 38.8369 28.4757 39.0338C28.3918 39.2026 28.2801 39.3714 28.1404 39.5402C28.0845 39.6246 28.0146 39.7371 27.9308 39.8778C27.847 39.9903 27.7632 40.1872 27.6793 40.4686L27.3021 40.9749C27.1903 41.1156 27.1205 41.2281 27.0926 41.3125C27.0646 41.3969 27.0227 41.5095 26.9668 41.6501L26.8411 41.9033C26.8131 41.9877 26.7433 42.1706 26.6315 42.4519C26.5756 42.5082 26.5197 42.5785 26.4639 42.6629C26.408 42.7192 26.3241 42.888 26.2124 43.1693C26.1006 43.3944 26.0028 43.6194 25.919 43.8445C25.8072 44.0696 25.7094 44.2946 25.6256 44.5197C25.6535 44.6322 25.6256 44.7166 25.5418 44.7729C25.458 44.801 25.3881 44.8854 25.3322 45.0261C25.2763 45.1667 25.2344 45.2933 25.2065 45.4059C25.1785 45.4903 25.1646 45.6028 25.1646 45.7435C25.1934 45.7522 25.2223 45.7612 25.2515 45.7705L24.2584 47.7927H57.2129L55.7992 44.9138Z" fill="#DEDEDE"/>
<path fill-rule="evenodd" clip-rule="evenodd" d="M55.7992 44.9138C55.8176 44.8841 55.8327 44.8512 55.8447 44.8151C55.7609 44.4212 55.6212 44.0414 55.4256 43.6757C55.2579 43.31 55.1042 42.9443 54.9645 42.5785C54.741 41.9596 54.5454 41.3688 54.3778 40.8062C54.266 40.5811 54.1822 40.3982 54.1263 40.2576C54.0704 40.1732 54.0425 40.0888 54.0425 40.0044C54.0704 39.8918 54.0564 39.7652 54.0005 39.6246C53.9447 39.4839 53.8748 39.3432 53.791 39.2026L53.6233 38.7806C53.5674 38.5555 53.4696 38.3305 53.3299 38.1054C53.1902 37.8803 53.0785 37.6553 52.9946 37.4302L52.827 37.0082C52.7711 36.8394 52.7152 36.7128 52.6593 36.6284C52.6034 36.4878 52.5336 36.3471 52.4498 36.2064C52.3939 36.0658 52.2961 35.9392 52.1564 35.8266C52.1005 35.6016 52.0306 35.4046 51.9468 35.2358C51.863 35.0389 51.7931 34.842 51.7372 34.645C51.6814 34.5607 51.6395 34.4622 51.6115 34.3497C51.6115 34.209 51.5836 34.0824 51.5277 33.9699C51.4159 33.6885 51.2622 33.4213 51.0666 33.1681C51.0108 33.0555 50.9549 32.9571 50.899 32.8727C50.8431 32.7601 50.7453 32.5913 50.6056 32.3663C50.5497 32.2256 50.4799 32.0709 50.396 31.9021C50.3122 31.7052 50.1865 31.4942 50.0188 31.2691C50.0188 31.0722 49.9769 30.9034 49.8931 30.7627C49.8093 30.622 49.7394 30.4814 49.6835 30.3407C49.6276 30.1157 49.5578 29.8906 49.474 29.6655C49.4181 29.4123 49.3343 29.1591 49.2225 28.9059C49.1945 28.8497 49.1526 28.7934 49.0967 28.7371C49.0409 28.6809 48.985 28.5824 48.9291 28.4417C48.8453 28.3292 48.7614 28.2448 48.6776 28.1886C48.6217 28.1042 48.5519 28.0198 48.4681 27.9354C48.3563 27.6259 48.2305 27.3164 48.0908 27.007C47.9791 26.6694 47.8533 26.374 47.7136 26.1208C47.6857 25.8957 47.6298 25.6566 47.546 25.4034C47.4901 25.1502 47.4342 24.9392 47.3783 24.7704C47.3224 24.5453 47.2526 24.3765 47.1688 24.264C47.1129 24.1233 47.043 23.9686 46.9592 23.7998C46.8754 23.7154 46.8055 23.617 46.7496 23.5044C46.7217 23.3919 46.6798 23.2934 46.6239 23.209L46.4562 22.9558C46.4283 22.8714 46.3864 22.8011 46.3305 22.7448C46.2746 22.6323 46.2187 22.5338 46.1629 22.4494C46.1349 22.365 46.093 22.2806 46.0371 22.1962C45.8974 21.8868 45.7577 21.5914 45.618 21.3101C45.5062 21.0006 45.3945 20.7193 45.2827 20.4661L45.115 20.2129C45.0871 20.1285 45.0452 20.0159 44.9893 19.8753C44.9334 19.7627 44.8915 19.6502 44.8636 19.5377C44.8636 19.4252 44.8356 19.2986 44.7797 19.1579C44.6959 18.8766 44.5981 18.5952 44.4863 18.3139C44.4025 18.0044 44.3187 17.7372 44.2349 17.5121C44.151 17.3152 44.0672 17.1323 43.9834 16.9635C43.9275 16.7947 43.8577 16.64 43.7738 16.4993L43.6062 16.0773C43.5503 15.9367 43.4944 15.8101 43.4385 15.6975C43.3826 15.5006 43.2848 15.3037 43.1451 15.1068C43.0334 14.9098 42.9216 14.7551 42.8098 14.6426C42.7539 14.53 42.6841 14.4175 42.6003 14.305C42.5444 14.1643 42.4466 14.0096 42.3069 13.8408C42.1951 13.7282 42.1113 13.6016 42.0554 13.461C41.9995 13.3203 41.8319 13.2219 41.5525 13.1656H41.301C41.2451 13.1375 41.1333 13.1515 40.9657 13.2078C40.8818 13.5172 40.7701 13.7986 40.6304 14.0518C40.4907 14.305 40.2811 14.5019 40.0017 14.6426C39.9458 14.8114 39.8759 14.9802 39.7921 15.149C39.7362 15.2896 39.6664 15.4444 39.5826 15.6131C39.4987 15.8382 39.4149 16.0914 39.3311 16.3727C39.2472 16.6259 39.1634 16.851 39.0796 17.0479C38.9958 17.273 38.9119 17.5121 38.8281 17.7653C38.7743 17.9821 38.6946 18.2641 38.5889 18.6113L38.5166 18.7586C38.473 18.8277 38.4232 18.8904 38.3671 18.9469C38.2833 19.0313 38.2134 19.1438 38.1575 19.2845C38.1122 19.3985 38.0853 19.5218 38.0767 19.6543L31.5116 33.0229C31.5056 33.0291 31.4995 33.0353 31.4934 33.0415C31.4096 33.154 31.3397 33.2806 31.2838 33.4213C31.2 33.5619 31.1301 33.7167 31.0743 33.8855C31.0184 34.0261 30.9206 34.1387 30.7809 34.2231C30.7809 34.42 30.711 34.5747 30.5713 34.6872C30.4595 34.7998 30.3757 34.9264 30.3198 35.067C30.1801 35.2921 30.0544 35.5453 29.9426 35.8266C29.8588 36.108 29.747 36.3612 29.6073 36.5862L29.5235 36.755C29.5235 36.7831 29.5095 36.8816 29.4816 37.0504L29.3978 37.2192C29.3698 37.2473 29.3279 37.3599 29.272 37.5568C29.2615 37.5886 29.2504 37.6199 29.2389 37.6508L29.0468 38.0419C28.9666 38.1491 28.874 38.2688 28.7691 38.4008C28.6573 38.6259 28.5595 38.8369 28.4757 39.0338C28.3918 39.2026 28.2801 39.3714 28.1404 39.5402C28.0845 39.6246 28.0146 39.7371 27.9308 39.8778C27.847 39.9903 27.7632 40.1872 27.6793 40.4686L27.3021 40.9749C27.1903 41.1156 27.1205 41.2281 27.0926 41.3125C27.0646 41.3969 27.0227 41.5095 26.9668 41.6501L26.8411 41.9033C26.8131 41.9877 26.7433 42.1706 26.6315 42.4519C26.5756 42.5082 26.5197 42.5785 26.4639 42.6629C26.408 42.7192 26.3241 42.888 26.2124 43.1693C26.1006 43.3944 26.0028 43.6194 25.919 43.8445C25.8072 44.0696 25.7094 44.2946 25.6256 44.5197C25.6535 44.6322 25.6256 44.7166 25.5418 44.7729C25.458 44.801 25.3881 44.8854 25.3322 45.0261C25.2763 45.1667 25.2344 45.2933 25.2065 45.4059C25.1785 45.4903 25.1646 45.6028 25.1646 45.7435C25.1934 45.7522 25.2223 45.7612 25.2515 45.7705L24.2584 47.7927H57.2129L55.7992 44.9138Z" fill="url(#paint0_linear)"/>
<path d="M85.5895 38.5739C85.5895 38.75 85.5603 38.9555 85.502 39.1903C85.4729 39.3958 85.4291 39.616 85.3708 39.8509C85.3125 40.0857 85.2542 40.2618 85.1959 40.3793C85.1667 40.4673 85.1521 40.5701 85.1521 40.6875C85.1813 40.8049 85.1813 40.893 85.1521 40.9517C85.0938 41.0985 85.0209 41.2453 84.9335 41.392C84.8751 41.5388 84.8168 41.6856 84.7585 41.8324C84.7002 41.9792 84.6419 42.1406 84.5836 42.3168C84.5544 42.4635 84.5107 42.5956 84.4524 42.7131C84.3941 42.8011 84.3066 42.8745 84.19 42.9332C84.1025 42.9919 84.0733 43.0947 84.1025 43.2415C83.8109 43.3589 83.5777 43.491 83.4027 43.6378C83.2569 43.7552 83.1403 43.8726 83.0529 43.9901C82.9654 44.1075 82.8488 44.2249 82.703 44.3423C82.6447 44.401 82.5572 44.4598 82.4406 44.5185C82.3239 44.5772 82.2073 44.6359 82.0907 44.6946C81.8574 44.8414 81.6825 44.9588 81.5659 45.0469C81.4784 45.1056 81.4055 45.1643 81.3472 45.223C81.2889 45.2524 81.2014 45.267 81.0848 45.267C80.9973 45.267 80.9244 45.2964 80.8661 45.3551C80.662 45.5019 80.4433 45.6193 80.2101 45.7074C80.006 45.7661 79.831 45.8688 79.6853 46.0156C79.5686 46.045 79.4666 46.045 79.3791 46.0156C79.2916 45.9863 79.2042 45.9863 79.1167 46.0156C78.8251 46.1037 78.6356 46.1771 78.5481 46.2358C78.4898 46.2651 78.4169 46.2945 78.3295 46.3239C78.1545 46.3826 78.0087 46.4266 77.8921 46.456C77.8046 46.456 77.7026 46.4853 77.586 46.544C77.2361 46.6615 76.9445 46.7202 76.7113 46.7202C76.478 46.7202 76.2593 46.7495 76.0552 46.8082C75.9095 46.8669 75.7928 46.8963 75.7054 46.8963C75.6471 46.8963 75.5887 46.911 75.5304 46.9403C75.4721 46.9403 75.3846 46.9697 75.268 47.0284C75.1805 47.0578 75.1077 47.0871 75.0493 47.1165C74.8161 47.0578 74.612 47.0431 74.437 47.0724C74.2913 47.0724 74.1455 47.0724 73.9997 47.0724C73.7956 47.0724 73.5623 47.0871 73.2999 47.1165C73.0375 47.1458 72.7897 47.1752 72.5564 47.2045C72.3815 47.2045 72.192 47.1899 71.9879 47.1605C71.8129 47.1312 71.6234 47.1312 71.4193 47.1605C71.2152 47.1899 70.982 47.2339 70.7196 47.2926C70.4863 47.3513 70.2676 47.2779 70.0635 47.0724C69.8886 47.1899 69.6991 47.2192 69.495 47.1605C69.32 47.1018 69.1305 47.0871 68.9264 47.1165C68.7223 47.1458 68.5328 47.2192 68.3579 47.3366C68.2121 47.4541 68.0226 47.4834 67.7893 47.4247C67.5852 47.6009 67.4249 47.7036 67.3082 47.733C67.1916 47.733 67.1041 47.7476 67.0458 47.777C66.8126 47.8651 66.5647 47.9678 66.3023 48.0852C66.0691 48.2026 65.7921 48.1586 65.4714 47.9531C65.2673 48.0412 65.0049 48.0559 64.6841 47.9972C64.5092 47.821 64.3197 47.5568 64.1156 47.2045C64.1156 46.9697 64.1593 46.7642 64.2468 46.5881C64.3343 46.3826 64.378 46.1771 64.378 45.9716C64.378 45.7955 64.3343 45.634 64.2468 45.4872C64.1885 45.3404 64.1447 45.179 64.1156 45.0028C64.0864 44.8561 64.0718 44.724 64.0718 44.6065C64.101 44.4598 64.1156 44.313 64.1156 44.1662C64.1156 44.0194 64.101 43.8873 64.0718 43.7699C64.0427 43.6525 64.0135 43.5204 63.9844 43.3736C63.9552 43.1387 63.9406 42.9332 63.9406 42.7571C63.9406 42.5516 63.9698 42.3314 64.0281 42.0966C64.0573 41.9792 64.0573 41.8324 64.0281 41.6562C64.0281 41.4508 64.0864 41.2306 64.203 40.9957C64.1739 40.9077 64.1447 40.8196 64.1156 40.7315C64.0864 40.6141 64.0718 40.4967 64.0718 40.3793C64.0718 40.2325 64.0864 40.0857 64.1156 39.9389C64.1739 39.7921 64.203 39.6454 64.203 39.4986C64.2322 39.3518 64.2322 39.1903 64.203 39.0142C64.1739 38.8381 64.1593 38.6619 64.1593 38.4858C64.1885 38.339 64.203 38.2069 64.203 38.0895C64.2322 37.9427 64.2468 37.8106 64.2468 37.6932C64.2759 37.6051 64.2905 37.5024 64.2905 37.3849C64.2905 37.2675 64.3343 37.1941 64.4217 37.1648C64.3634 37.0473 64.3197 36.9593 64.2905 36.9006C64.2905 36.8125 64.2905 36.7098 64.2905 36.5923V36.0199C64.2905 35.9025 64.3051 35.7997 64.3343 35.7116C64.3926 35.6236 64.4363 35.5208 64.4655 35.4034C64.4655 35.3447 64.4509 35.2713 64.4217 35.1832C64.3926 35.0952 64.378 35.0071 64.378 34.919C64.4363 34.6842 64.4509 34.5227 64.4217 34.4347C64.3926 34.3172 64.3926 34.2145 64.4217 34.1264V33.0256C64.4217 32.9081 64.4363 32.7907 64.4655 32.6733C64.4946 32.5559 64.5092 32.4384 64.5092 32.321C64.5092 32.2036 64.48 32.0862 64.4217 31.9687C64.3926 31.8513 64.378 31.7339 64.378 31.6165C64.378 31.1761 64.3926 30.7211 64.4217 30.2514C64.48 29.7817 64.4363 29.3267 64.2905 28.8864C64.4363 28.7689 64.48 28.6368 64.4217 28.4901C64.3926 28.3433 64.378 28.1965 64.378 28.0497C64.4071 27.991 64.4217 27.9029 64.4217 27.7855C64.4217 27.6387 64.4217 27.4919 64.4217 27.3452C64.3634 26.9929 64.3343 26.5966 64.3343 26.1562C64.3634 25.7159 64.4071 25.2462 64.4655 24.7472C64.5238 24.4536 64.5238 24.2628 64.4655 24.1747C64.4363 24.0866 64.4217 23.9986 64.4217 23.9105C64.3926 23.8224 64.378 23.7344 64.378 23.6463C64.4071 23.5582 64.4217 23.4848 64.4217 23.4261C64.3926 23.1913 64.3488 22.9418 64.2905 22.6776C64.2614 22.4134 64.3197 22.1198 64.4655 21.7969C64.378 21.7382 64.3343 21.6501 64.3343 21.5327C64.3634 21.4152 64.3634 21.2978 64.3343 21.1804C64.3051 21.063 64.2614 20.9602 64.203 20.8722C64.1739 20.7841 64.1447 20.6813 64.1156 20.5639C64.1739 20.1823 64.1739 19.8594 64.1156 19.5952C64.0573 19.331 64.101 19.1255 64.2468 18.9787C64.1885 18.8319 64.1302 18.7292 64.0718 18.6705C64.0135 18.6117 63.9844 18.509 63.9844 18.3622C64.0135 18.2154 64.0135 18.0393 63.9844 17.8338C63.9552 17.6283 63.9844 17.4815 64.0718 17.3935C64.0135 17.276 63.9406 17.1733 63.8532 17.0852C63.7657 16.9972 63.7511 16.8357 63.8094 16.6009C63.7511 16.4834 63.6345 16.322 63.4596 16.1165C63.3138 15.911 63.3429 15.7202 63.547 15.544C63.6637 15.3973 63.8386 15.2945 64.0718 15.2358C64.3343 15.1771 64.5967 15.1477 64.8591 15.1477C65.1215 15.1184 65.3693 15.1037 65.6026 15.1037C65.865 15.1037 66.0691 15.089 66.2149 15.0597C66.4481 14.9716 66.6231 14.8982 66.7397 14.8395C66.8855 14.7514 67.1187 14.6927 67.4394 14.6634C67.5561 14.6634 67.6435 14.6634 67.7019 14.6634C67.7893 14.634 67.8914 14.6193 68.008 14.6193C68.0955 14.6193 68.1975 14.634 68.3141 14.6634C68.4308 14.6927 68.5182 14.7074 68.5766 14.7074C68.664 14.7074 68.7515 14.6927 68.839 14.6634C68.9264 14.6046 68.9993 14.5753 69.0576 14.5753C69.2034 14.5753 69.3929 14.6046 69.6262 14.6634H70.807C71.0403 14.6634 71.1861 14.6487 71.2444 14.6193C71.3027 14.59 71.3319 14.59 71.3319 14.6193C71.3902 14.7074 71.4922 14.7221 71.638 14.6634C71.7838 14.6046 71.9296 14.5753 72.0754 14.5753C72.4252 14.5459 72.8043 14.5312 73.2125 14.5312C73.6498 14.5312 74.058 14.5606 74.437 14.6193C74.8452 14.678 75.1368 14.7367 75.3117 14.7955C75.5158 14.8248 75.7199 14.9276 75.924 15.1037C76.5072 15.133 77.0466 15.2652 77.5422 15.5C78.0379 15.7055 78.4898 15.9257 78.898 16.1605C79.073 16.2779 79.1896 16.366 79.2479 16.4247C79.3354 16.4834 79.452 16.5862 79.5978 16.733C79.6561 16.7917 79.7144 16.8651 79.7727 16.9531C79.8602 17.0412 79.9331 17.1146 79.9914 17.1733C80.0497 17.232 80.0789 17.3201 80.0789 17.4375C80.108 17.5256 80.1518 17.599 80.2101 17.6577C80.385 17.8338 80.4725 17.9512 80.4725 18.0099C80.5016 18.0393 80.5162 18.0687 80.5162 18.098C80.6912 18.3329 80.7932 18.509 80.8224 18.6264C80.8807 18.7438 80.939 18.8759 80.9973 19.0227C81.1431 19.1695 81.2597 19.331 81.3472 19.5071C81.4347 19.6832 81.5513 19.8447 81.6971 19.9915C81.6679 20.1676 81.6679 20.3291 81.6971 20.4759C81.7262 20.6226 81.7554 20.7694 81.7845 20.9162C81.8428 21.063 81.8866 21.1951 81.9157 21.3125C81.9741 21.4006 82.0324 21.5033 82.0907 21.6207C82.0907 21.7088 82.0907 21.8116 82.0907 21.929C82.0907 22.017 82.1053 22.1051 82.1344 22.1932C82.2219 22.6922 82.1927 23.1619 82.0469 23.6023C81.9886 23.6903 81.9303 23.7784 81.872 23.8665C81.8428 23.9252 81.7991 23.9986 81.7408 24.0866C81.6825 24.2041 81.6533 24.3215 81.6533 24.4389C81.6533 24.5563 81.6242 24.6591 81.5659 24.7472C81.5075 24.8939 81.4201 25.0554 81.3035 25.2315C81.1868 25.3783 81.0848 25.5251 80.9973 25.6719C80.939 25.7599 80.8807 25.848 80.8224 25.9361C80.7932 25.9948 80.7495 26.0682 80.6912 26.1562C80.6328 26.2737 80.5454 26.4058 80.4287 26.5526C80.3413 26.67 80.2538 26.7874 80.1663 26.9048C80.0789 27.0223 79.9914 27.1397 79.9039 27.2571C79.8165 27.3452 79.6998 27.4332 79.554 27.5213C79.3208 27.6974 79.175 27.8442 79.1167 27.9616C79.0584 28.0497 79.0146 28.1084 78.9855 28.1378C78.9272 28.402 78.9563 28.5634 79.073 28.6222C79.1896 28.6515 79.2771 28.6809 79.3354 28.7102C79.452 28.7396 79.554 28.7543 79.6415 28.7543C79.7581 28.7249 79.8602 28.7396 79.9477 28.7983C80.1518 28.857 80.3267 28.9598 80.4725 29.1065C80.6183 29.2533 80.7641 29.3854 80.9098 29.5028C81.2597 29.8258 81.5367 30.0753 81.7408 30.2514C81.9449 30.4276 82.1636 30.589 82.3968 30.7358C82.5718 31.0294 82.7613 31.2789 82.9654 31.4844C83.1986 31.6899 83.3736 31.9541 83.4902 32.277C83.6651 32.4531 83.7818 32.6146 83.8401 32.7614C83.8984 32.8788 83.9859 32.9815 84.1025 33.0696C84.1316 33.1283 84.1608 33.2017 84.19 33.2898C84.2483 33.3778 84.3066 33.4512 84.3649 33.5099C84.5107 33.6861 84.6273 33.9209 84.7148 34.2145C84.8314 34.4787 84.948 34.7429 85.0647 35.0071C85.123 35.1539 85.1521 35.3007 85.1521 35.4474C85.1521 35.5942 85.1813 35.7997 85.2396 36.0639C85.2979 36.3575 85.3854 36.7391 85.502 37.2088C85.6186 37.6785 85.6478 38.1335 85.5895 38.5739ZM76.3177 23.25C76.201 23.0739 76.1573 22.839 76.1865 22.5455C76.2156 22.2519 76.201 21.973 76.1427 21.7088C76.0552 21.562 76.0115 21.4593 76.0115 21.4006C76.0407 21.3419 76.0407 21.2831 76.0115 21.2244C75.8949 21.0483 75.822 20.9455 75.7928 20.9162C75.7928 20.8575 75.7783 20.7841 75.7491 20.696C75.5158 20.5786 75.3409 20.4318 75.2243 20.2557C75.1077 20.0502 74.9619 19.8741 74.7869 19.7273C74.5828 19.6686 74.4662 19.6098 74.437 19.5511C74.4079 19.4924 74.3642 19.4484 74.3058 19.419C73.9851 19.3603 73.6936 19.331 73.4311 19.331C73.1979 19.3016 72.9646 19.2723 72.7314 19.2429C72.4981 19.2135 72.2649 19.1842 72.0316 19.1548C71.7984 19.1255 71.5651 19.1255 71.3319 19.1548C71.0403 19.2135 70.8362 19.2429 70.7196 19.2429C70.6321 19.2135 70.5592 19.1989 70.5009 19.1989C70.1219 19.3456 69.8157 19.419 69.5825 19.419C69.3492 19.419 69.116 19.4484 68.8827 19.5071C68.8244 19.7126 68.8098 19.9181 68.839 20.1236C68.8973 20.3291 68.9264 20.5492 68.9264 20.7841C68.9556 20.9015 68.9556 21.0043 68.9264 21.0923C68.9264 21.1804 68.9264 21.2831 68.9264 21.4006C68.9264 21.5473 68.941 21.6941 68.9702 21.8409C69.0285 21.9877 69.0576 22.1345 69.0576 22.2812C69.0576 22.428 69.0431 22.5748 69.0139 22.7216C68.9847 22.8684 68.9702 23.0152 68.9702 23.1619C68.941 23.3381 68.941 23.5289 68.9702 23.7344C68.9993 23.9399 69.0139 24.0866 69.0139 24.1747C68.9847 24.4976 68.9847 24.7325 69.0139 24.8793C69.0722 24.9967 69.1305 25.1288 69.1888 25.2756C69.0431 25.6572 69.0285 26.0535 69.1451 26.4645C69.2617 26.8461 69.3784 27.1984 69.495 27.5213C69.6408 27.4919 69.7866 27.4479 69.9323 27.3892C70.1073 27.3305 70.2676 27.2865 70.4134 27.2571C70.6467 27.1984 70.8654 27.1837 71.0695 27.2131C71.3027 27.2424 71.536 27.2277 71.7692 27.169C71.9442 27.1103 72.1191 27.0369 72.294 26.9489C72.4981 26.8608 72.7168 26.8461 72.9501 26.9048C73.2999 26.6406 73.7373 26.5085 74.2621 26.5085C74.3204 26.3617 74.437 26.259 74.612 26.2003C74.7869 26.1416 74.9473 26.0829 75.0931 26.0241C75.1514 25.9361 75.2097 25.8627 75.268 25.804C75.3555 25.7159 75.4284 25.6278 75.4867 25.5398C75.6033 25.3636 75.6908 25.2609 75.7491 25.2315C75.8366 25.1728 75.8949 25.1141 75.924 25.0554C75.9824 24.9673 75.9969 24.8646 75.9678 24.7472C75.9678 24.6004 76.0407 24.483 76.1865 24.3949C76.1281 24.1894 76.1136 23.9986 76.1427 23.8224C76.201 23.617 76.2593 23.4261 76.3177 23.25ZM79.3791 36.8565C79.2625 36.7098 79.1604 36.5336 79.073 36.3281C79.0146 36.1226 78.9563 35.9025 78.898 35.6676C78.8397 35.5502 78.7668 35.4768 78.6793 35.4474C78.621 35.4181 78.5627 35.3594 78.5044 35.2713C78.3878 35.0365 78.2712 34.875 78.1545 34.7869C78.0379 34.6989 77.9504 34.6255 77.8921 34.5668C77.7463 34.42 77.6297 34.3172 77.5422 34.2585C77.4548 34.1998 77.3381 34.1264 77.1924 34.0384C76.9591 33.8916 76.7404 33.7741 76.5363 33.6861C76.3322 33.5687 76.1427 33.4366 75.9678 33.2898C75.4721 33.1723 74.9764 33.0843 74.4808 33.0256C74.0143 32.9669 73.5623 32.9081 73.125 32.8494C72.5419 32.8201 72.0316 32.8788 71.5943 33.0256C71.1569 33.143 70.6175 33.187 69.9761 33.1577C69.9178 33.2751 69.8303 33.3632 69.7137 33.4219C69.6262 33.4512 69.5533 33.5246 69.495 33.642C69.5241 34.5521 69.4804 35.4621 69.3638 36.3722C69.2472 37.2822 69.2326 38.1335 69.32 38.9261C69.2617 39.3665 69.2472 39.7628 69.2763 40.1151C69.3346 40.438 69.3492 40.6728 69.32 40.8196C69.2909 41.0544 69.3055 41.2599 69.3638 41.4361C69.4221 41.5829 69.4513 41.7296 69.4513 41.8764C69.4513 41.9351 69.4367 42.0085 69.4075 42.0966C69.3784 42.1847 69.3638 42.2727 69.3638 42.3608C69.3638 42.4782 69.3492 42.581 69.32 42.669C69.32 42.7277 69.3492 42.8158 69.4075 42.9332C69.7282 42.9332 70.0344 42.8892 70.326 42.8011C70.6467 42.6837 70.982 42.5956 71.3319 42.5369C71.5651 42.4782 71.7984 42.4342 72.0316 42.4048C72.2649 42.3755 72.4981 42.3461 72.7314 42.3168C72.8772 42.2874 72.9792 42.258 73.0375 42.2287C73.125 42.1993 73.1979 42.1847 73.2562 42.1847C73.3437 42.1553 73.4311 42.1406 73.5186 42.1406C73.6061 42.1406 73.6936 42.1259 73.781 42.0966C74.3642 41.9792 74.9036 41.8617 75.3992 41.7443C75.924 41.5975 76.4343 41.392 76.9299 41.1278C77.0466 41.0985 77.1486 41.0838 77.2361 41.0838C77.3527 41.0544 77.4839 41.0251 77.6297 40.9957C77.7755 40.849 77.9213 40.6875 78.0671 40.5114C78.242 40.3059 78.4461 40.1444 78.6793 40.027C78.7377 39.9389 78.7668 39.8362 78.7668 39.7187C78.7668 39.6013 78.8397 39.5279 78.9855 39.4986C79.0146 39.3518 79.0438 39.2344 79.073 39.1463C79.1313 39.0582 79.1896 38.9702 79.2479 38.8821C79.3354 38.4711 79.35 38.0895 79.2916 37.7372C79.2625 37.3849 79.2916 37.0914 79.3791 36.8565Z" fill="#E4E4E4"/>
<path d="M127.728 44.3864C127.787 44.8267 127.772 45.267 127.684 45.7074C127.626 46.1477 127.524 46.4853 127.378 46.7202C127.233 46.867 127.087 46.9257 126.941 46.8963C126.795 46.867 126.635 46.867 126.46 46.8963C126.139 47.0137 125.789 47.1165 125.41 47.2045C125.177 47.2926 125.002 47.3367 124.885 47.3367C124.798 47.3073 124.71 47.3073 124.623 47.3367C124.536 47.366 124.448 47.41 124.361 47.4688C124.273 47.4981 124.186 47.5275 124.098 47.5568C123.865 47.5862 123.588 47.6009 123.267 47.6009C122.976 47.5715 122.67 47.5568 122.349 47.5568C121.795 47.733 121.226 47.821 120.643 47.821C120.06 47.7917 119.55 47.8063 119.112 47.8651C118.85 47.8944 118.558 47.8944 118.238 47.8651C117.917 47.8063 117.567 47.7917 117.188 47.821C116.955 47.821 116.722 47.821 116.488 47.821C116.255 47.7917 116.007 47.7036 115.745 47.5568C115.628 47.6155 115.512 47.6596 115.395 47.6889C115.278 47.7183 115.162 47.777 115.045 47.8651C114.899 47.8063 114.768 47.7476 114.651 47.6889C114.535 47.6302 114.389 47.6009 114.214 47.6009C113.952 47.6009 113.675 47.6302 113.383 47.6889C113.092 47.7183 112.887 47.5862 112.771 47.2926C112.625 47.2926 112.523 47.3367 112.465 47.4247C112.436 47.5128 112.348 47.5568 112.202 47.5568C112.056 47.5275 111.896 47.5128 111.721 47.5128C111.546 47.5128 111.342 47.4981 111.109 47.4688C111.021 47.322 110.919 47.2045 110.803 47.1165C110.686 47.0284 110.599 46.8963 110.54 46.7202C110.511 46.456 110.511 46.2945 110.54 46.2358C110.599 46.1771 110.657 46.1037 110.715 46.0156C110.774 45.634 110.744 45.4138 110.628 45.3551C110.511 45.267 110.453 45.1349 110.453 44.9588C110.482 44.724 110.482 44.4891 110.453 44.2543C110.424 44.0194 110.424 43.7846 110.453 43.5497C110.482 43.4029 110.511 43.2708 110.54 43.1534C110.569 43.036 110.599 42.9186 110.628 42.8011C110.599 42.5076 110.584 42.2287 110.584 41.9645C110.613 41.6709 110.613 41.4067 110.584 41.1719C110.584 41.0251 110.569 40.893 110.54 40.7756C110.511 40.6288 110.482 40.482 110.453 40.3352C110.453 40.2178 110.467 40.1151 110.497 40.027C110.526 39.9096 110.54 39.7921 110.54 39.6747C110.569 39.3224 110.555 38.9702 110.497 38.6179C110.438 38.2363 110.38 37.8693 110.322 37.517C110.263 37.2822 110.234 37.018 110.234 36.7244C110.263 36.4015 110.263 36.0346 110.234 35.6236C110.205 35.5062 110.176 35.4034 110.147 35.3153C110.118 35.2273 110.103 35.1245 110.103 35.0071C110.045 34.8016 110.016 34.5961 110.016 34.3906C110.016 34.1558 110.001 33.9209 109.972 33.6861C109.972 33.5687 109.957 33.4512 109.928 33.3338C109.928 33.2164 109.928 33.1136 109.928 33.0256C109.899 32.9375 109.87 32.8641 109.841 32.8054C109.811 32.7173 109.797 32.6293 109.797 32.5412C109.739 32.1302 109.724 31.7486 109.753 31.3963C109.811 31.044 109.811 30.6918 109.753 30.3395C109.724 30.0753 109.68 29.8258 109.622 29.5909C109.593 29.3561 109.564 29.1212 109.534 28.8864V28.6222V28.1378C109.476 28.0204 109.432 27.9029 109.403 27.7855C109.403 27.6681 109.359 27.5653 109.272 27.4773C109.33 27.1544 109.345 26.8168 109.316 26.4645C109.287 26.1122 109.243 25.7746 109.185 25.4517C109.185 25.3343 109.17 25.2315 109.141 25.1435C109.112 25.026 109.082 24.9086 109.053 24.7912C109.053 24.7325 109.068 24.6591 109.097 24.571C109.126 24.483 109.141 24.3802 109.141 24.2628C109.141 24.2041 109.126 24.1307 109.097 24.0426C109.097 23.9252 109.097 23.8371 109.097 23.7784C109.068 23.6023 109.053 23.4261 109.053 23.25C109.082 23.0445 109.082 22.8684 109.053 22.7216C109.024 22.4867 108.98 22.2813 108.922 22.1051C108.864 21.8996 108.82 21.7088 108.791 21.5327C108.762 21.3859 108.747 21.2538 108.747 21.1364C108.747 21.0189 108.747 20.8868 108.747 20.7401C108.776 20.5052 108.776 20.3438 108.747 20.2557C108.747 20.1676 108.747 20.0942 108.747 20.0355V19.419C108.747 19.2429 108.747 19.0668 108.747 18.8906C108.747 18.6851 108.733 18.509 108.703 18.3622C108.674 18.1274 108.674 17.9659 108.703 17.8778C108.733 17.7604 108.733 17.6577 108.703 17.5696C108.703 17.3935 108.674 17.2027 108.616 16.9972C108.558 16.7917 108.558 16.6009 108.616 16.4247C108.616 16.2779 108.558 16.1752 108.441 16.1165C108.354 16.0578 108.295 15.9697 108.266 15.8523C108.295 15.3532 108.295 14.9276 108.266 14.5753C108.237 14.1937 108.252 13.7974 108.31 13.3864C108.456 13.2983 108.601 13.1956 108.747 13.0781C108.922 12.9607 109.155 12.9313 109.447 12.9901C109.622 13.0781 109.739 13.1368 109.797 13.1662C109.884 13.1662 109.943 13.1515 109.972 13.1222C110.03 13.0928 110.074 13.0634 110.103 13.0341C110.132 13.0047 110.19 13.0047 110.278 13.0341C110.628 12.9754 111.167 12.9607 111.896 12.9901C112.625 13.0194 113.266 13.0047 113.82 12.946C113.908 12.946 113.995 12.9313 114.083 12.902C114.17 12.8726 114.243 12.8726 114.302 12.902C114.447 12.9313 114.593 13.0047 114.739 13.1222C114.885 13.2396 114.972 13.3423 115.001 13.4304C115.06 13.5772 115.074 13.6946 115.045 13.7827C115.016 13.8414 114.972 13.9441 114.914 14.0909C115.06 14.4432 115.118 14.7955 115.089 15.1477C115.06 15.4706 115.045 15.8229 115.045 16.2045C115.016 16.2926 115.016 16.3807 115.045 16.4688C115.103 16.5568 115.133 16.6596 115.133 16.777C115.133 16.9238 115.103 17.0706 115.045 17.2173C115.016 17.3641 115.001 17.5109 115.001 17.6577C115.001 17.8925 115.03 18.142 115.089 18.4063C115.147 18.6705 115.103 18.9347 114.958 19.1989C115.045 19.4924 115.074 19.7713 115.045 20.0355C115.045 20.2997 115.03 20.6226 115.001 21.0043C115.03 21.0923 115.03 21.1804 115.001 21.2685C114.972 21.3272 114.972 21.4006 115.001 21.4886C115.001 21.7235 115.06 21.9583 115.176 22.1932C115.293 22.3987 115.235 22.6629 115.001 22.9858C115.264 23.3087 115.38 23.7637 115.351 24.3509C115.351 24.938 115.38 25.4957 115.439 26.0242C115.468 26.2884 115.512 26.5379 115.57 26.7727C115.628 27.0076 115.657 27.2424 115.657 27.4773C115.686 27.7415 115.686 28.0204 115.657 28.3139C115.628 28.6075 115.628 28.8864 115.657 29.1506C115.686 29.3561 115.686 29.5028 115.657 29.5909C115.628 29.679 115.614 29.7524 115.614 29.8111C115.672 30.0459 115.686 30.1927 115.657 30.2514C115.657 30.3101 115.672 30.3688 115.701 30.4276C115.701 30.5156 115.716 30.6037 115.745 30.6918C115.774 30.7505 115.803 30.8239 115.832 30.9119C115.832 31.0294 115.818 31.1321 115.789 31.2202C115.789 31.3082 115.789 31.411 115.789 31.5284L115.92 32.4531C115.949 32.7173 115.963 32.9669 115.963 33.2017C115.993 33.4072 116.007 33.6714 116.007 33.9943C116.036 34.1411 116.066 34.2585 116.095 34.3466C116.124 34.4347 116.138 34.5081 116.138 34.5668C116.109 34.6548 116.095 34.7576 116.095 34.875C116.124 34.9924 116.095 35.0952 116.007 35.1832C116.095 35.5355 116.153 35.8731 116.182 36.196C116.211 36.4896 116.168 36.7685 116.051 37.0327C116.109 37.2088 116.124 37.429 116.095 37.6932C116.066 37.9574 116.051 38.2509 116.051 38.5739C116.08 38.6619 116.109 38.7647 116.138 38.8821C116.168 38.9995 116.109 39.1316 115.963 39.2784C116.051 39.6894 116.08 40.0857 116.051 40.4673C116.051 40.8196 116.08 41.2306 116.138 41.7003C116.372 41.9058 116.663 41.9938 117.013 41.9645C117.363 41.9351 117.698 41.9058 118.019 41.8764C118.34 41.8471 118.675 41.8471 119.025 41.8764C119.375 41.8764 119.71 41.8617 120.031 41.8324C120.118 41.8324 120.206 41.8324 120.293 41.8324C120.381 41.803 120.454 41.7884 120.512 41.7884C120.803 41.7884 121.066 41.803 121.299 41.8324C121.532 41.8617 121.809 41.8617 122.13 41.8324C122.188 41.8324 122.261 41.8177 122.349 41.7884C122.436 41.759 122.538 41.759 122.655 41.7884C122.859 41.8177 123.005 41.8177 123.092 41.7884C123.209 41.759 123.296 41.7296 123.355 41.7003C123.471 41.7003 123.573 41.715 123.661 41.7443C123.777 41.7443 123.894 41.7443 124.011 41.7443C124.186 41.6856 124.302 41.6709 124.361 41.7003C124.419 41.7296 124.477 41.7443 124.536 41.7443C124.915 41.6269 125.192 41.5682 125.367 41.5682C125.571 41.5682 125.775 41.5388 125.979 41.4801C126.416 41.392 126.737 41.392 126.941 41.4801C127.174 41.5682 127.335 41.6709 127.422 41.7884C127.451 41.9058 127.466 42.0232 127.466 42.1406C127.495 42.2581 127.524 42.3755 127.553 42.4929C127.553 42.6103 127.568 42.7277 127.597 42.8452C127.626 42.9332 127.655 43.036 127.684 43.1534C127.684 43.3002 127.655 43.4176 127.597 43.5057C127.568 43.5938 127.568 43.7112 127.597 43.858C127.597 43.946 127.612 44.0341 127.641 44.1222C127.67 44.2102 127.699 44.2983 127.728 44.3864Z" fill="#E4E4E4"/>
<path fill-rule="evenodd" clip-rule="evenodd" d="M162.981 32.3467C163.121 31.7559 163.191 31.1792 163.191 30.6165C163.219 30.1383 163.191 29.7022 163.107 29.3084C163.051 28.8864 163.037 28.4925 163.065 28.1268C163.093 27.7611 163.093 27.4375 163.065 27.1562C163.065 26.8749 163.079 26.5654 163.107 26.2278C162.967 26.0028 162.842 25.7777 162.73 25.5526C162.646 25.2994 162.576 25.0322 162.52 24.7508C162.492 24.6664 162.492 24.582 162.52 24.4976C162.548 24.4132 162.548 24.3007 162.52 24.16C162.492 23.9631 162.45 23.7662 162.395 23.5693C162.367 23.3723 162.325 23.2035 162.269 23.0629C162.241 23.0066 162.227 22.9363 162.227 22.8519C162.227 22.7393 162.157 22.5705 162.017 22.3455C161.906 22.1767 161.822 22.0079 161.766 21.8391C161.71 21.6703 161.612 21.5437 161.473 21.4593C161.528 21.1498 161.486 20.8966 161.347 20.6997C161.207 20.4746 161.095 20.2918 161.011 20.1511C160.956 20.0386 160.914 19.9401 160.886 19.8557C160.858 19.7432 160.816 19.6447 160.76 19.5603L160.592 19.3071C160.564 19.1946 160.453 19.0258 160.257 18.8007C160.061 18.6319 159.894 18.435 159.754 18.2099C159.559 18.1537 159.405 18.0693 159.293 17.9567C159.181 17.8442 159.014 17.7739 158.79 17.7457L158.622 17.4926C158.567 17.38 158.497 17.2675 158.413 17.155C158.357 17.1268 158.273 17.0987 158.161 17.0706C158.078 17.0424 157.952 16.9299 157.784 16.733C157.644 16.6204 157.519 16.5079 157.407 16.3954C157.295 16.2828 157.169 16.1844 157.03 16.1C156.946 16.0437 156.848 16.0015 156.736 15.9734C156.653 15.9171 156.541 15.889 156.401 15.889C156.373 15.7483 156.289 15.6639 156.15 15.6358C156.038 15.5795 155.912 15.5233 155.772 15.467C155.716 15.4389 155.647 15.3967 155.563 15.3404C155.507 15.256 155.353 15.1435 155.102 15.0028C154.822 14.8903 154.529 14.8199 154.222 14.7918C153.942 14.7637 153.691 14.6933 153.467 14.5808C153.327 14.5245 153.244 14.5386 153.216 14.623C153.188 14.6793 153.118 14.7074 153.006 14.7074C152.866 14.4823 152.685 14.3557 152.461 14.3276C152.266 14.2713 152.042 14.201 151.791 14.1166C151.735 14.0885 151.651 14.0603 151.539 14.0322C151.455 13.9759 151.372 13.9337 151.288 13.9056C151.232 13.8775 151.148 13.8775 151.036 13.9056C150.924 13.9056 150.771 13.8634 150.575 13.779C150.324 13.6946 150.044 13.6524 149.737 13.6524C149.653 13.6243 149.583 13.568 149.527 13.4836C149.471 13.3992 149.374 13.357 149.234 13.357C149.01 13.357 148.759 13.343 148.48 13.3148C148.228 13.2867 148.005 13.3148 147.809 13.3992C147.641 13.2304 147.432 13.132 147.18 13.1038C146.929 13.0757 146.566 12.9913 146.091 12.8506C145.979 12.8506 145.783 12.8084 145.504 12.724C145.448 12.724 145.392 12.7381 145.336 12.7662C145.28 12.7662 145.141 12.724 144.917 12.6396H144.666C144.582 12.6115 144.512 12.6115 144.456 12.6396C144.4 12.6396 144.344 12.6537 144.288 12.6818C144.232 12.71 144.093 12.7522 143.869 12.8084C143.646 12.8928 143.422 12.9632 143.199 13.0194C143.003 13.0476 142.793 13.0898 142.57 13.146C142.263 13.2023 141.941 13.2726 141.606 13.357C141.299 13.4414 141.033 13.5258 140.81 13.6102C140.67 13.6665 140.502 13.7227 140.307 13.779C140.139 13.8353 139.957 13.8353 139.762 13.779C139.622 13.8915 139.482 13.99 139.343 14.0744C139.203 14.1307 139.007 14.1447 138.756 14.1166C138.56 14.2573 138.365 14.3557 138.169 14.412C138.001 14.4401 137.834 14.4964 137.666 14.5808C137.498 14.6652 137.331 14.7637 137.163 14.8762C137.023 14.9887 136.842 15.0591 136.618 15.0872C136.562 15.1716 136.493 15.2279 136.409 15.256C136.353 15.2841 136.297 15.3545 136.241 15.467C136.045 15.5514 135.92 15.6639 135.864 15.8046C135.64 15.7764 135.501 15.8327 135.445 15.9734C135.389 16.0859 135.277 16.1562 135.109 16.1844C134.942 16.522 134.718 16.747 134.439 16.8596C134.383 17.0002 134.299 17.169 134.187 17.366C134.103 17.5348 133.95 17.7317 133.726 17.9567C133.698 18.013 133.67 18.1115 133.642 18.2521C133.615 18.3647 133.531 18.5335 133.391 18.7585C133.335 18.8992 133.265 19.0117 133.181 19.0961C133.126 19.1805 133.028 19.3634 132.888 19.6447C132.832 19.8135 132.762 19.9682 132.678 20.1089C132.623 20.2496 132.581 20.4324 132.553 20.6575C132.329 20.8263 132.176 21.0514 132.092 21.3327C132.036 21.614 131.952 21.8954 131.84 22.1767C131.756 22.3736 131.659 22.5987 131.547 22.8519C131.463 23.0769 131.309 23.3583 131.086 23.6959C131.03 23.8084 131.002 23.9491 131.002 24.1178C131.002 24.2866 130.974 24.4554 130.918 24.6242C130.89 24.7649 130.862 24.9196 130.834 25.0884C130.806 25.2291 130.792 25.3698 130.792 25.5104C130.792 25.5667 130.806 25.637 130.834 25.7214L130.918 25.9746C130.918 26.0309 130.904 26.1153 130.876 26.2278C130.848 26.3122 130.848 26.4951 130.876 26.7764C130.876 26.8889 130.848 26.9874 130.792 27.0718C130.764 27.1562 130.75 27.2547 130.75 27.3672C130.723 27.4797 130.709 27.6204 130.709 27.7892C130.736 27.958 130.778 28.1971 130.834 28.5066C130.862 28.7035 130.848 28.8582 130.792 28.9708C130.764 29.0833 130.778 29.1958 130.834 29.3084C130.89 29.5616 130.904 29.7726 130.876 29.9414C130.848 30.1102 130.848 30.3071 130.876 30.5321C130.876 30.5603 130.862 30.6025 130.834 30.6587C130.834 30.6869 130.862 30.8275 130.918 31.0807C130.918 31.1933 130.89 31.3902 130.834 31.6715C130.946 31.7278 130.988 31.8263 130.96 31.9669V32.2623L131.086 32.8953C131.114 33.0078 131.114 33.1204 131.086 33.2329C131.086 33.3454 131.1 33.472 131.128 33.6127C131.156 33.6971 131.184 33.7956 131.212 33.9081C131.267 34.0206 131.281 34.1754 131.253 34.3723C131.253 34.4848 131.281 34.5974 131.337 34.7099L131.505 34.9631C131.533 35.16 131.547 35.3429 131.547 35.5117C131.575 35.6805 131.617 35.8352 131.673 35.9759C131.756 36.1728 131.854 36.3557 131.966 36.5245C132.106 36.6651 132.162 36.862 132.134 37.1152C132.245 37.1715 132.329 37.2559 132.385 37.3684C132.469 37.481 132.525 37.6076 132.553 37.7482L132.72 38.0858C132.776 38.1984 132.86 38.2968 132.972 38.3812C133.056 38.5219 133.167 38.6907 133.307 38.8876C133.447 39.0845 133.628 39.3377 133.852 39.6472C133.964 39.7316 134.062 39.8301 134.145 39.9426C134.229 40.027 134.341 40.2239 134.481 40.5334C134.565 40.6741 134.676 40.8147 134.816 40.9554L135.361 41.504C135.445 41.6165 135.57 41.7009 135.738 41.7572L136.241 41.926C136.297 42.0948 136.409 42.2636 136.576 42.4324C136.772 42.573 136.94 42.6996 137.079 42.8122L137.415 43.1498C137.526 43.206 137.652 43.2341 137.792 43.2341C137.876 43.2904 137.945 43.3748 138.001 43.4873C138.085 43.5999 138.169 43.6983 138.253 43.7827C138.309 43.839 138.365 43.8812 138.421 43.9093C138.504 43.9375 138.616 44.0078 138.756 44.1203C138.84 44.2047 138.923 44.2751 139.007 44.3313C139.091 44.3595 139.189 44.4298 139.301 44.5423C139.44 44.6267 139.566 44.6971 139.678 44.7533C139.79 44.8096 140.041 44.8799 140.432 44.9643C140.712 45.3019 141.173 45.4707 141.815 45.4707C142.039 45.6676 142.276 45.752 142.528 45.7239C142.807 45.7239 143.087 45.7661 143.366 45.8505C143.562 45.9068 143.757 45.9912 143.953 46.1037C144.149 46.2162 144.344 46.2022 144.54 46.0615C144.596 46.1178 144.721 46.16 144.917 46.1881C145.141 46.2444 145.28 46.2444 145.336 46.1881C145.476 46.2162 145.629 46.2444 145.797 46.2725C145.993 46.3006 146.174 46.3006 146.342 46.2725C146.51 46.2725 146.691 46.2444 146.887 46.1881C147.082 46.16 147.334 46.1318 147.641 46.1037C147.781 46.16 147.893 46.2162 147.977 46.2725C148.088 46.3288 148.2 46.3428 148.312 46.3147C148.452 46.3147 148.591 46.2725 148.731 46.1881C148.899 46.1318 149.066 46.0896 149.234 46.0615H149.653C149.793 46.0896 149.933 46.1037 150.072 46.1037C150.38 46.0756 150.715 46.0052 151.078 45.8927C151.469 45.8083 151.735 45.6958 151.874 45.5551C152.182 45.527 152.433 45.4566 152.629 45.3441C152.852 45.2597 153.146 45.1613 153.509 45.0487C153.565 44.8799 153.663 44.7815 153.802 44.7533C153.97 44.7252 154.124 44.6689 154.264 44.5845C154.375 44.5283 154.473 44.4579 154.557 44.3735C154.669 44.261 154.878 44.1344 155.186 43.9937C155.353 43.8249 155.577 43.6843 155.856 43.5717C156.136 43.4311 156.359 43.2904 156.527 43.1498C156.583 43.0935 156.667 43.0513 156.778 43.0232C156.89 42.995 157.03 42.9106 157.197 42.77C157.253 42.7418 157.295 42.6996 157.323 42.6434C157.351 42.559 157.477 42.4324 157.7 42.2636C157.784 42.1792 157.924 42.1088 158.119 42.0526C158.175 41.8556 158.287 41.6868 158.455 41.5462C158.622 41.4055 158.818 41.1945 159.042 40.9132C159.125 40.8288 159.209 40.7725 159.293 40.7444C159.377 40.6881 159.461 40.6178 159.545 40.5334C159.6 40.4771 159.642 40.4209 159.67 40.3646C159.726 40.2802 159.838 40.1395 160.006 39.9426C160.201 39.7175 160.327 39.4925 160.383 39.2674C160.467 39.0142 160.62 38.8032 160.844 38.6344C160.816 38.5219 160.816 38.4375 160.844 38.3812C160.872 38.2968 160.886 38.2265 160.886 38.1702C160.998 38.114 161.095 38.0155 161.179 37.8748C161.263 37.706 161.375 37.5091 161.514 37.284C161.57 37.1434 161.626 37.0449 161.682 36.9886C161.738 36.9324 161.836 36.7917 161.975 36.5667C162.087 36.3135 162.129 36.0603 162.101 35.8071C162.101 35.5539 162.143 35.2585 162.227 34.9209C162.255 34.8365 162.297 34.7521 162.353 34.6677C162.437 34.5833 162.492 34.4989 162.52 34.4145C162.548 34.3582 162.562 34.2879 162.562 34.2035C162.562 34.1191 162.576 34.0347 162.604 33.9503C162.744 33.4439 162.87 32.9094 162.981 32.3467Z" fill="#DEDEDE"/>
<path fill-rule="evenodd" clip-rule="evenodd" d="M162.981 32.3467C163.121 31.7559 163.191 31.1792 163.191 30.6165C163.219 30.1383 163.191 29.7022 163.107 29.3084C163.051 28.8864 163.037 28.4925 163.065 28.1268C163.093 27.7611 163.093 27.4375 163.065 27.1562C163.065 26.8749 163.079 26.5654 163.107 26.2278C162.967 26.0028 162.842 25.7777 162.73 25.5526C162.646 25.2994 162.576 25.0322 162.52 24.7508C162.492 24.6664 162.492 24.582 162.52 24.4976C162.548 24.4132 162.548 24.3007 162.52 24.16C162.492 23.9631 162.45 23.7662 162.395 23.5693C162.367 23.3723 162.325 23.2035 162.269 23.0629C162.241 23.0066 162.227 22.9363 162.227 22.8519C162.227 22.7393 162.157 22.5705 162.017 22.3455C161.906 22.1767 161.822 22.0079 161.766 21.8391C161.71 21.6703 161.612 21.5437 161.473 21.4593C161.528 21.1498 161.486 20.8966 161.347 20.6997C161.207 20.4746 161.095 20.2918 161.011 20.1511C160.956 20.0386 160.914 19.9401 160.886 19.8557C160.858 19.7432 160.816 19.6447 160.76 19.5603L160.592 19.3071C160.564 19.1946 160.453 19.0258 160.257 18.8007C160.061 18.6319 159.894 18.435 159.754 18.2099C159.559 18.1537 159.405 18.0693 159.293 17.9567C159.181 17.8442 159.014 17.7739 158.79 17.7457L158.622 17.4926C158.567 17.38 158.497 17.2675 158.413 17.155C158.357 17.1268 158.273 17.0987 158.161 17.0706C158.078 17.0424 157.952 16.9299 157.784 16.733C157.644 16.6204 157.519 16.5079 157.407 16.3954C157.295 16.2828 157.169 16.1844 157.03 16.1C156.946 16.0437 156.848 16.0015 156.736 15.9734C156.653 15.9171 156.541 15.889 156.401 15.889C156.373 15.7483 156.289 15.6639 156.15 15.6358C156.038 15.5795 155.912 15.5233 155.772 15.467C155.716 15.4389 155.647 15.3967 155.563 15.3404C155.507 15.256 155.353 15.1435 155.102 15.0028C154.822 14.8903 154.529 14.8199 154.222 14.7918C153.942 14.7637 153.691 14.6933 153.467 14.5808C153.327 14.5245 153.244 14.5386 153.216 14.623C153.188 14.6793 153.118 14.7074 153.006 14.7074C152.866 14.4823 152.685 14.3557 152.461 14.3276C152.266 14.2713 152.042 14.201 151.791 14.1166C151.735 14.0885 151.651 14.0603 151.539 14.0322C151.455 13.9759 151.372 13.9337 151.288 13.9056C151.232 13.8775 151.148 13.8775 151.036 13.9056C150.924 13.9056 150.771 13.8634 150.575 13.779C150.324 13.6946 150.044 13.6524 149.737 13.6524C149.653 13.6243 149.583 13.568 149.527 13.4836C149.471 13.3992 149.374 13.357 149.234 13.357C149.01 13.357 148.759 13.343 148.48 13.3148C148.228 13.2867 148.005 13.3148 147.809 13.3992C147.641 13.2304 147.432 13.132 147.18 13.1038C146.929 13.0757 146.566 12.9913 146.091 12.8506C145.979 12.8506 145.783 12.8084 145.504 12.724C145.448 12.724 145.392 12.7381 145.336 12.7662C145.28 12.7662 145.141 12.724 144.917 12.6396H144.666C144.582 12.6115 144.512 12.6115 144.456 12.6396C144.4 12.6396 144.344 12.6537 144.288 12.6818C144.232 12.71 144.093 12.7522 143.869 12.8084C143.646 12.8928 143.422 12.9632 143.199 13.0194C143.003 13.0476 142.793 13.0898 142.57 13.146C142.263 13.2023 141.941 13.2726 141.606 13.357C141.299 13.4414 141.033 13.5258 140.81 13.6102C140.67 13.6665 140.502 13.7227 140.307 13.779C140.139 13.8353 139.957 13.8353 139.762 13.779C139.622 13.8915 139.482 13.99 139.343 14.0744C139.203 14.1307 139.007 14.1447 138.756 14.1166C138.56 14.2573 138.365 14.3557 138.169 14.412C138.001 14.4401 137.834 14.4964 137.666 14.5808C137.498 14.6652 137.331 14.7637 137.163 14.8762C137.023 14.9887 136.842 15.0591 136.618 15.0872C136.562 15.1716 136.493 15.2279 136.409 15.256C136.353 15.2841 136.297 15.3545 136.241 15.467C136.045 15.5514 135.92 15.6639 135.864 15.8046C135.64 15.7764 135.501 15.8327 135.445 15.9734C135.389 16.0859 135.277 16.1562 135.109 16.1844C134.942 16.522 134.718 16.747 134.439 16.8596C134.383 17.0002 134.299 17.169 134.187 17.366C134.103 17.5348 133.95 17.7317 133.726 17.9567C133.698 18.013 133.67 18.1115 133.642 18.2521C133.615 18.3647 133.531 18.5335 133.391 18.7585C133.335 18.8992 133.265 19.0117 133.181 19.0961C133.126 19.1805 133.028 19.3634 132.888 19.6447C132.832 19.8135 132.762 19.9682 132.678 20.1089C132.623 20.2496 132.581 20.4324 132.553 20.6575C132.329 20.8263 132.176 21.0514 132.092 21.3327C132.036 21.614 131.952 21.8954 131.84 22.1767C131.756 22.3736 131.659 22.5987 131.547 22.8519C131.463 23.0769 131.309 23.3583 131.086 23.6959C131.03 23.8084 131.002 23.9491 131.002 24.1178C131.002 24.2866 130.974 24.4554 130.918 24.6242C130.89 24.7649 130.862 24.9196 130.834 25.0884C130.806 25.2291 130.792 25.3698 130.792 25.5104C130.792 25.5667 130.806 25.637 130.834 25.7214L130.918 25.9746C130.918 26.0309 130.904 26.1153 130.876 26.2278C130.848 26.3122 130.848 26.4951 130.876 26.7764C130.876 26.8889 130.848 26.9874 130.792 27.0718C130.764 27.1562 130.75 27.2547 130.75 27.3672C130.723 27.4797 130.709 27.6204 130.709 27.7892C130.736 27.958 130.778 28.1971 130.834 28.5066C130.862 28.7035 130.848 28.8582 130.792 28.9708C130.764 29.0833 130.778 29.1958 130.834 29.3084C130.89 29.5616 130.904 29.7726 130.876 29.9414C130.848 30.1102 130.848 30.3071 130.876 30.5321C130.876 30.5603 130.862 30.6025 130.834 30.6587C130.834 30.6869 130.862 30.8275 130.918 31.0807C130.918 31.1933 130.89 31.3902 130.834 31.6715C130.946 31.7278 130.988 31.8263 130.96 31.9669V32.2623L131.086 32.8953C131.114 33.0078 131.114 33.1204 131.086 33.2329C131.086 33.3454 131.1 33.472 131.128 33.6127C131.156 33.6971 131.184 33.7956 131.212 33.9081C131.267 34.0206 131.281 34.1754 131.253 34.3723C131.253 34.4848 131.281 34.5974 131.337 34.7099L131.505 34.9631C131.533 35.16 131.547 35.3429 131.547 35.5117C131.575 35.6805 131.617 35.8352 131.673 35.9759C131.756 36.1728 131.854 36.3557 131.966 36.5245C132.106 36.6651 132.162 36.862 132.134 37.1152C132.245 37.1715 132.329 37.2559 132.385 37.3684C132.469 37.481 132.525 37.6076 132.553 37.7482L132.72 38.0858C132.776 38.1984 132.86 38.2968 132.972 38.3812C133.056 38.5219 133.167 38.6907 133.307 38.8876C133.447 39.0845 133.628 39.3377 133.852 39.6472C133.964 39.7316 134.062 39.8301 134.145 39.9426C134.229 40.027 134.341 40.2239 134.481 40.5334C134.565 40.6741 134.676 40.8147 134.816 40.9554L135.361 41.504C135.445 41.6165 135.57 41.7009 135.738 41.7572L136.241 41.926C136.297 42.0948 136.409 42.2636 136.576 42.4324C136.772 42.573 136.94 42.6996 137.079 42.8122L137.415 43.1498C137.526 43.206 137.652 43.2341 137.792 43.2341C137.876 43.2904 137.945 43.3748 138.001 43.4873C138.085 43.5999 138.169 43.6983 138.253 43.7827C138.309 43.839 138.365 43.8812 138.421 43.9093C138.504 43.9375 138.616 44.0078 138.756 44.1203C138.84 44.2047 138.923 44.2751 139.007 44.3313C139.091 44.3595 139.189 44.4298 139.301 44.5423C139.44 44.6267 139.566 44.6971 139.678 44.7533C139.79 44.8096 140.041 44.8799 140.432 44.9643C140.712 45.3019 141.173 45.4707 141.815 45.4707C142.039 45.6676 142.276 45.752 142.528 45.7239C142.807 45.7239 143.087 45.7661 143.366 45.8505C143.562 45.9068 143.757 45.9912 143.953 46.1037C144.149 46.2162 144.344 46.2022 144.54 46.0615C144.596 46.1178 144.721 46.16 144.917 46.1881C145.141 46.2444 145.28 46.2444 145.336 46.1881C145.476 46.2162 145.629 46.2444 145.797 46.2725C145.993 46.3006 146.174 46.3006 146.342 46.2725C146.51 46.2725 146.691 46.2444 146.887 46.1881C147.082 46.16 147.334 46.1318 147.641 46.1037C147.781 46.16 147.893 46.2162 147.977 46.2725C148.088 46.3288 148.2 46.3428 148.312 46.3147C148.452 46.3147 148.591 46.2725 148.731 46.1881C148.899 46.1318 149.066 46.0896 149.234 46.0615H149.653C149.793 46.0896 149.933 46.1037 150.072 46.1037C150.38 46.0756 150.715 46.0052 151.078 45.8927C151.469 45.8083 151.735 45.6958 151.874 45.5551C152.182 45.527 152.433 45.4566 152.629 45.3441C152.852 45.2597 153.146 45.1613 153.509 45.0487C153.565 44.8799 153.663 44.7815 153.802 44.7533C153.97 44.7252 154.124 44.6689 154.264 44.5845C154.375 44.5283 154.473 44.4579 154.557 44.3735C154.669 44.261 154.878 44.1344 155.186 43.9937C155.353 43.8249 155.577 43.6843 155.856 43.5717C156.136 43.4311 156.359 43.2904 156.527 43.1498C156.583 43.0935 156.667 43.0513 156.778 43.0232C156.89 42.995 157.03 42.9106 157.197 42.77C157.253 42.7418 157.295 42.6996 157.323 42.6434C157.351 42.559 157.477 42.4324 157.7 42.2636C157.784 42.1792 157.924 42.1088 158.119 42.0526C158.175 41.8556 158.287 41.6868 158.455 41.5462C158.622 41.4055 158.818 41.1945 159.042 40.9132C159.125 40.8288 159.209 40.7725 159.293 40.7444C159.377 40.6881 159.461 40.6178 159.545 40.5334C159.6 40.4771 159.642 40.4209 159.67 40.3646C159.726 40.2802 159.838 40.1395 160.006 39.9426C160.201 39.7175 160.327 39.4925 160.383 39.2674C160.467 39.0142 160.62 38.8032 160.844 38.6344C160.816 38.5219 160.816 38.4375 160.844 38.3812C160.872 38.2968 160.886 38.2265 160.886 38.1702C160.998 38.114 161.095 38.0155 161.179 37.8748C161.263 37.706 161.375 37.5091 161.514 37.284C161.57 37.1434 161.626 37.0449 161.682 36.9886C161.738 36.9324 161.836 36.7917 161.975 36.5667C162.087 36.3135 162.129 36.0603 162.101 35.8071C162.101 35.5539 162.143 35.2585 162.227 34.9209C162.255 34.8365 162.297 34.7521 162.353 34.6677C162.437 34.5833 162.492 34.4989 162.52 34.4145C162.548 34.3582 162.562 34.2879 162.562 34.2035C162.562 34.1191 162.576 34.0347 162.604 33.9503C162.744 33.4439 162.87 32.9094 162.981 32.3467Z" fill="url(#paint1_linear)"/>
<path d="M191.698 17.5696C191.698 17.6283 191.683 17.7164 191.654 17.8338C191.625 17.9512 191.611 18.054 191.611 18.1421C191.611 18.2301 191.625 18.3182 191.654 18.4063C191.683 18.4943 191.698 18.5677 191.698 18.6264C191.669 18.7145 191.64 18.8172 191.611 18.9347C191.581 19.0521 191.552 19.1548 191.523 19.2429C191.465 19.5071 191.421 19.7566 191.392 19.9915C191.392 20.2263 191.319 20.4171 191.173 20.5639C191.232 20.6813 191.246 20.8135 191.217 20.9602C191.188 21.107 191.173 21.2391 191.173 21.3565C191.173 21.562 191.188 21.7528 191.217 21.929C191.275 22.0758 191.29 22.2372 191.261 22.4134C191.261 22.5601 191.246 22.7069 191.217 22.8537C191.188 22.9711 191.159 23.1032 191.129 23.25C191.071 23.5436 191.013 23.8371 190.955 24.1307C190.925 24.4242 190.896 24.7325 190.867 25.0554C190.809 25.4077 190.794 25.6719 190.823 25.848C190.882 25.9948 190.838 26.1269 190.692 26.2443C190.809 26.5672 190.867 26.9489 190.867 27.3892C190.867 27.8002 190.911 28.1671 190.998 28.4901C190.998 28.6075 190.969 28.6956 190.911 28.7543C190.852 28.813 190.838 28.9157 190.867 29.0625C190.925 29.2093 190.955 29.3561 190.955 29.5028C190.955 29.6496 190.969 29.7964 190.998 29.9432C191.057 30.178 191.071 30.3542 191.042 30.4716C191.013 30.5597 191.013 30.6184 191.042 30.6477C191.071 30.7652 191.1 30.8826 191.129 31C191.188 31.1174 191.217 31.2055 191.217 31.2642C191.275 31.4697 191.29 31.8367 191.261 32.3651C191.232 32.688 191.232 32.9228 191.261 33.0696C191.319 33.187 191.348 33.2898 191.348 33.3778C191.29 33.6714 191.261 33.9063 191.261 34.0824C191.232 34.2879 191.232 34.464 191.261 34.6108C191.29 34.7282 191.275 34.9044 191.217 35.1392C191.159 35.5796 191.086 36.0052 190.998 36.4162C190.94 36.7978 190.882 37.1648 190.823 37.5171C190.736 37.7225 190.692 37.8693 190.692 37.9574C190.721 38.0161 190.736 38.0748 190.736 38.1335C190.707 38.251 190.678 38.3684 190.648 38.4858C190.619 38.6032 190.59 38.7206 190.561 38.8381C190.503 39.0729 190.459 39.3078 190.43 39.5426C190.401 39.7481 190.342 39.9389 190.255 40.1151C190.109 40.2912 190.036 40.4233 190.036 40.5114C190.036 40.5994 190.022 40.6728 189.992 40.7315C189.73 40.9957 189.511 41.2599 189.336 41.5242C189.161 41.759 189.001 41.9792 188.855 42.1847C188.535 42.5076 188.243 42.8305 187.981 43.1534C187.747 43.447 187.514 43.7699 187.281 44.1222C187.193 44.2689 187.164 44.401 187.193 44.5185C187.252 44.6065 187.252 44.6946 187.193 44.7827C186.989 44.9588 186.771 45.1203 186.537 45.2671C186.333 45.4432 186.056 45.5606 185.706 45.6193C185.648 45.7367 185.59 45.8542 185.531 45.9716C185.502 46.1184 185.458 46.2505 185.4 46.3679C185.196 46.3679 185.021 46.4266 184.875 46.544C184.73 46.6615 184.569 46.7642 184.394 46.8523C184.336 46.8816 184.248 46.911 184.132 46.9403C184.044 46.9697 183.928 46.9991 183.782 47.0284C183.636 47.0871 183.505 47.1312 183.388 47.1605C183.272 47.1899 183.126 47.2339 182.951 47.2926C182.747 47.41 182.587 47.4688 182.47 47.4688C182.353 47.4981 182.251 47.5275 182.164 47.5568C181.843 47.6449 181.566 47.7183 181.333 47.777C181.129 47.8357 180.823 47.8651 180.414 47.8651C180.035 47.9238 179.773 47.9678 179.627 47.9972C179.481 48.0559 179.336 48.0999 179.19 48.1293C178.869 48.0706 178.563 48.0412 178.271 48.0412C177.98 48.0412 177.747 48.0118 177.572 47.9531C177.338 47.777 177.149 47.6302 177.003 47.5128C176.857 47.4247 176.755 47.3513 176.697 47.2926C176.551 47.2339 176.405 47.2192 176.26 47.2486C176.114 47.2779 175.983 47.2633 175.866 47.2046C175.778 47.1752 175.691 47.1165 175.604 47.0284C175.516 46.9697 175.414 46.911 175.297 46.8523C175.181 46.7936 175.064 46.7642 174.947 46.7642C174.831 46.7936 174.7 46.7936 174.554 46.7642C174.408 46.5881 174.248 46.4413 174.073 46.3239C173.898 46.2064 173.694 46.1477 173.461 46.1477C173.315 45.9129 173.111 45.7514 172.848 45.6634C172.615 45.5753 172.425 45.4138 172.28 45.179C172.134 45.1203 172.003 45.0909 171.886 45.0909C171.799 45.0616 171.697 45.0175 171.58 44.9588C171.434 44.812 171.347 44.6946 171.317 44.6065C171.288 44.5185 171.245 44.4451 171.186 44.3864C170.953 44.0928 170.793 43.9167 170.705 43.858C170.618 43.7992 170.574 43.7112 170.574 43.5938C170.253 43.2708 170.035 42.9773 169.918 42.7131C169.83 42.4489 169.67 42.2434 169.437 42.0966C169.291 41.715 169.204 41.3921 169.174 41.1278C169.174 40.8636 169.131 40.5994 169.043 40.3352C169.014 40.2472 168.97 40.1591 168.912 40.071C168.854 39.983 168.81 39.8802 168.781 39.7628C168.752 39.6747 168.737 39.5867 168.737 39.4986C168.766 39.3812 168.766 39.2637 168.737 39.1463C168.679 38.9115 168.635 38.6619 168.606 38.3977C168.606 38.1042 168.635 37.8106 168.693 37.5171C168.46 37.1648 168.344 36.7538 168.344 36.2841C168.344 35.785 168.271 35.33 168.125 34.919C168.125 34.7723 168.139 34.6548 168.169 34.5668C168.198 34.4787 168.227 34.3906 168.256 34.3026C168.023 33.7154 167.994 33.2604 168.169 32.9375C168.081 32.732 168.037 32.5559 168.037 32.4091C168.037 32.2623 168.037 32.0715 168.037 31.8367C168.037 31.7486 168.023 31.6312 167.994 31.4844C167.964 31.3376 167.935 31.1615 167.906 30.956C167.906 30.8385 167.906 30.7358 167.906 30.6477C167.935 30.5597 167.95 30.4716 167.95 30.3835C167.921 30.2661 167.892 30.1634 167.862 30.0753C167.862 29.9872 167.892 29.8992 167.95 29.8111C167.892 29.723 167.848 29.6203 167.819 29.5028C167.819 29.3854 167.775 29.2974 167.687 29.2386C167.775 29.0919 167.79 28.901 167.731 28.6662C167.702 28.402 167.746 28.1965 167.862 28.0497C167.804 27.9323 167.731 27.7855 167.644 27.6094C167.585 27.4332 167.615 27.2571 167.731 27.081C167.702 26.9635 167.658 26.8608 167.6 26.7727C167.542 26.6553 167.498 26.5232 167.469 26.3764C167.498 26.259 167.513 26.1856 167.513 26.1563C167.513 26.0975 167.527 26.0095 167.556 25.8921C167.498 25.6572 167.483 25.4957 167.513 25.4077C167.542 25.3196 167.527 25.2169 167.469 25.0994C167.41 24.9527 167.41 24.7618 167.469 24.527C167.527 24.2921 167.498 24.0867 167.381 23.9105C167.469 23.5582 167.483 23.3087 167.425 23.1619C167.367 23.0152 167.381 22.8684 167.469 22.7216C167.44 22.3106 167.425 21.9877 167.425 21.7528C167.425 21.4886 167.425 21.2244 167.425 20.9602C167.513 20.7254 167.542 20.5639 167.513 20.4759C167.483 20.3584 167.469 20.2704 167.469 20.2117C167.498 19.8007 167.483 19.5071 167.425 19.331C167.367 19.1255 167.381 18.9493 167.469 18.8026C167.323 18.5677 167.265 18.3182 167.294 18.054C167.323 17.7604 167.352 17.4962 167.381 17.2614C167.381 17.1439 167.396 17.0265 167.425 16.9091C167.454 16.7917 167.41 16.7036 167.294 16.6449C167.44 16.41 167.483 16.1605 167.425 15.8963C167.367 15.6028 167.41 15.3826 167.556 15.2358C167.498 15.0303 167.44 14.8395 167.381 14.6634C167.323 14.4579 167.323 14.2377 167.381 14.0028C167.352 13.8267 167.25 13.724 167.075 13.6946C166.9 13.6653 166.769 13.5919 166.682 13.4744C166.594 13.2396 166.594 13.0194 166.682 12.8139C166.769 12.6084 166.813 12.3589 166.813 12.0653C167.046 11.8892 167.265 11.6544 167.469 11.3608C167.702 11.0672 168.037 11.0085 168.475 11.1847C168.854 11.2434 169.16 11.3314 169.393 11.4489C169.656 11.5369 169.903 11.581 170.137 11.581C170.253 11.581 170.355 11.5663 170.443 11.5369C170.53 11.5076 170.618 11.5076 170.705 11.5369C170.88 11.5369 171.04 11.5663 171.186 11.625C171.361 11.6837 171.522 11.7278 171.667 11.7571C171.813 11.7865 171.944 11.7865 172.061 11.7571C172.207 11.7278 172.338 11.7278 172.455 11.7571C172.571 11.8158 172.717 11.9039 172.892 12.0213C173.067 12.1094 173.227 12.1974 173.373 12.2855C173.606 12.3736 173.781 12.4617 173.898 12.5497C174.014 12.6084 174.131 12.6818 174.248 12.7699C174.306 13.0047 174.291 13.2249 174.204 13.4304C174.117 13.6359 174.044 13.8414 173.985 14.0469C173.956 14.223 173.942 14.3992 173.942 14.5753C173.971 14.7221 173.956 14.8688 173.898 15.0156C173.869 15.1624 173.825 15.2798 173.767 15.3679C173.708 15.456 173.65 15.5734 173.592 15.7202C173.533 15.9844 173.49 16.2633 173.461 16.5568C173.461 16.821 173.431 17.0852 173.373 17.3494C173.315 17.6136 173.256 17.8778 173.198 18.1421C173.14 18.3769 173.111 18.6117 173.111 18.8466C173.111 19.0814 173.14 19.3163 173.198 19.5511C173.286 19.786 173.242 19.9915 173.067 20.1676C173.154 20.4025 173.213 20.652 173.242 20.9162C173.271 21.151 173.3 21.4006 173.329 21.6648C173.388 21.8996 173.431 22.1345 173.461 22.3693C173.49 22.6042 173.504 22.839 173.504 23.0739C173.417 23.3968 173.373 23.617 173.373 23.7344C173.402 23.8224 173.417 23.8958 173.417 23.9546C173.388 24.1013 173.358 24.2481 173.329 24.3949C173.329 24.5417 173.329 24.6885 173.329 24.8352C173.329 24.9233 173.344 25.0114 173.373 25.0994C173.431 25.1875 173.461 25.3049 173.461 25.4517C173.431 25.7159 173.417 25.9948 173.417 26.2884C173.417 26.5819 173.417 26.8461 173.417 27.081C173.446 27.2278 173.475 27.3745 173.504 27.5213C173.533 27.6681 173.548 27.8149 173.548 27.9617C173.577 28.1965 173.577 28.4313 173.548 28.6662C173.519 28.901 173.504 29.1359 173.504 29.3707C173.533 29.723 173.563 30.0753 173.592 30.4276C173.65 30.7505 173.606 31.0734 173.461 31.3963C173.519 31.6899 173.548 31.9981 173.548 32.321C173.577 32.6146 173.606 32.9375 173.635 33.2898C173.694 33.7595 173.767 34.2439 173.854 34.7429C173.942 35.242 174.014 35.7263 174.073 36.196C174.102 36.3428 174.117 36.5043 174.117 36.6804C174.146 36.8565 174.175 37.018 174.204 37.1648C174.233 37.3116 174.262 37.4583 174.291 37.6051C174.35 37.7225 174.408 37.8546 174.466 38.0014C174.525 38.2363 174.568 38.4564 174.598 38.6619C174.627 38.8674 174.7 39.0436 174.816 39.1903C174.962 39.3371 175.035 39.4399 175.035 39.4986C175.035 39.5573 175.035 39.6013 175.035 39.6307C175.356 39.9536 175.574 40.2325 175.691 40.4673C175.808 40.6728 175.939 40.8196 176.085 40.9077C176.143 40.9664 176.245 41.0251 176.391 41.0838C176.537 41.1132 176.682 41.1572 176.828 41.2159C176.945 41.2746 177.047 41.348 177.134 41.4361C177.251 41.4948 177.353 41.5388 177.44 41.5682C177.586 41.6269 177.79 41.6856 178.053 41.7443C178.344 41.7737 178.621 41.7737 178.884 41.7443C179.059 41.7443 179.219 41.7003 179.365 41.6122C179.54 41.5242 179.729 41.5095 179.933 41.5682C180.021 41.4508 180.137 41.3774 180.283 41.348C180.429 41.3187 180.546 41.2746 180.633 41.2159C180.808 41.0985 180.954 40.9811 181.07 40.8636C181.216 40.7169 181.377 40.5994 181.551 40.5114C181.639 40.3352 181.726 40.1738 181.814 40.027C181.931 39.8802 182.062 39.7334 182.208 39.5867C182.324 39.3518 182.426 39.1903 182.514 39.1023C182.572 39.0142 182.616 38.9408 182.645 38.8821C182.703 38.8234 182.747 38.75 182.776 38.6619C182.834 38.5445 182.864 38.4418 182.864 38.3537C182.864 38.2363 182.893 38.1335 182.951 38.0455C183.009 37.8987 183.068 37.7519 183.126 37.6051C183.184 37.429 183.243 37.2235 183.301 36.9886C183.388 36.8419 183.432 36.7244 183.432 36.6364C183.432 36.5189 183.447 36.4309 183.476 36.3722C183.709 36.0199 183.884 35.7557 184.001 35.5796C184.117 35.3741 184.205 35.1686 184.263 34.9631C184.263 34.7282 184.278 34.5961 184.307 34.5668C184.365 34.5081 184.394 34.4493 184.394 34.3906C184.423 34.3026 184.423 34.2145 184.394 34.1264C184.394 34.0384 184.394 33.9356 184.394 33.8182C184.482 33.554 184.511 33.3632 184.482 33.2457C184.482 33.099 184.482 32.9669 184.482 32.8494C184.511 32.6146 184.525 32.3944 184.525 32.1889C184.525 31.9541 184.555 31.7192 184.613 31.4844C184.671 31.1615 184.7 30.9413 184.7 30.8239C184.73 30.7064 184.759 30.589 184.788 30.4716C184.759 30.1487 184.759 29.8992 184.788 29.723C184.846 29.5469 184.89 29.3707 184.919 29.1946C184.948 29.0478 184.948 28.901 184.919 28.7543C184.919 28.6075 184.934 28.4754 184.963 28.358C184.992 28.2112 185.021 28.0938 185.05 28.0057C185.079 27.9176 185.123 27.8296 185.181 27.7415C185.123 27.6241 185.079 27.5213 185.05 27.4332C185.021 27.3452 184.992 27.2424 184.963 27.125C184.963 26.9782 184.977 26.8461 185.007 26.7287C185.036 26.5819 185.05 26.4205 185.05 26.2443C185.079 26.0975 185.079 25.9654 185.05 25.848C185.021 25.7306 185.007 25.6132 185.007 25.4957C185.036 25.2315 185.05 24.982 185.05 24.7472C185.05 24.483 185.05 24.2188 185.05 23.9546C185.05 23.5729 185.065 23.2206 185.094 22.8977C185.152 22.5455 185.181 22.1932 185.181 21.8409C185.152 21.5767 185.123 21.3272 185.094 21.0923C185.094 20.8575 185.079 20.6226 185.05 20.3878C185.05 20.1529 185.021 19.9181 184.963 19.6832C184.934 19.4484 184.934 19.2135 184.963 18.9787C184.963 18.8613 184.977 18.7585 185.007 18.6705C185.036 18.553 185.036 18.4356 185.007 18.3182C185.007 18.2301 184.992 18.1421 184.963 18.054C184.934 17.9366 184.919 17.8045 184.919 17.6577C184.89 17.4228 184.89 17.232 184.919 17.0852C184.977 16.9385 184.977 16.7476 184.919 16.5128C184.832 15.9257 184.773 15.3679 184.744 14.8395C184.715 14.3111 184.744 13.7974 184.832 13.2983C184.919 13.2396 185.007 13.2102 185.094 13.2102C185.181 13.1809 185.24 13.1222 185.269 13.0341C185.473 12.9754 185.663 12.9901 185.838 13.0781C186.012 13.1368 186.173 13.1515 186.319 13.1222C186.435 13.0928 186.523 13.0635 186.581 13.0341C186.668 12.9754 186.771 12.9167 186.887 12.858C187.062 12.9167 187.252 12.9607 187.456 12.9901C187.66 12.9901 187.864 12.946 188.068 12.858C188.155 12.7992 188.301 12.7846 188.505 12.8139C188.739 12.8139 188.943 12.7992 189.118 12.7699C189.38 12.6818 189.555 12.6525 189.642 12.6818C189.759 12.6818 189.861 12.6818 189.949 12.6818C190.153 12.6818 190.342 12.6818 190.517 12.6818C190.692 12.6525 190.852 12.6671 190.998 12.7259C191.115 12.8433 191.188 12.9607 191.217 13.0781C191.275 13.1662 191.334 13.2689 191.392 13.3864C191.538 13.5625 191.581 13.8854 191.523 14.3551C191.465 14.8248 191.436 15.2652 191.436 15.6761C191.436 15.9403 191.436 16.2045 191.436 16.4688C191.465 16.733 191.508 16.9825 191.567 17.2173L191.698 17.5696Z" fill="#E4E4E4"/>
<defs>
<linearGradient id="paint0_linear" x1="40.7357" y1="13.1515" x2="40.7357" y2="47.7926" gradientUnits="userSpaceOnUse">
<stop stop-color="#CAB8FF"/>
<stop offset="1" stop-color="white" stop-opacity="0"/>
</linearGradient>
<linearGradient id="paint1_linear" x1="146.955" y1="12.6185" x2="146.955" y2="46.3288" gradientUnits="userSpaceOnUse">
<stop stop-color="#CAB8FF"/>
<stop offset="1" stop-color="white" stop-opacity="0"/>
</linearGradient>
</defs>
</svg>
